<?xml version="1.0" standalone="no"?><!DOCTYPE svg PUBLIC "-//W3C//DTD SVG 1.1//EN" "http://www.w3.org/Graphics/SVG/1.1/DTD/svg11.dtd"><svg t="1729050626089" class="icon" viewBox="0 0 1024 1024" version="1.1" xmlns="http://www.w3.org/2000/svg" p-id="3884" xmlns:xlink="http://www.w3.org/1999/xlink" width="200" height="200"><path d="M0 0h1024v1024H0z" fill="#FFFFFF" p-id="3885"></path><path d="M320 768a32 32 0 1 0 0 64v-64z m608 64a32 32 0 1 0 0-64v64zM320 480a32 32 0 1 0 0 64v-64z m608 64a32 32 0 1 0 0-64v64zM320 192a32 32 0 0 0 0 64V192z m608 64a32 32 0 1 0 0-64v64zM160 128h32a32 32 0 0 0-51.2-25.6L160 128zM128 288a32 32 0 0 0 64 0H128zM76.8 150.4a32 32 0 1 0 38.4 51.2L76.8 150.4zM96 608H64a32 32 0 0 0 32 32v-32z m96 32a32 32 0 1 0 0-64v64z m-128-176a32 32 0 1 0 64 0H64zM96 704a32 32 0 1 0 0 64v-64z m96 32h32a32 32 0 0 0-32-32v32z m-64 144a32 32 0 1 0-64 0h64z m16-64l-21.76-23.456a32 32 0 0 0-1.888 45.024L144 816z m176 16h608v-64H320v64z m0-288h608v-64H320v64z m0-288h608V192H320v64zM128 128v160h64V128H128z m12.8-25.6l-64 48 38.4 51.2 64-48-38.4-51.2zM96 640h96v-64H96v64z m64-176c0-3.52 1.152-4.48-0.32-1.696a77.76 77.76 0 0 1-7.68 10.944c-8.064 10.112-18.784 21.248-31.52 35.04-12 13.024-25.472 28.064-35.936 43.488C74.528 566.496 64 586.144 64 608h64c0-2.144 1.472-8.48 9.472-20.256 7.52-11.104 18.048-23.04 30.048-36.032 11.264-12.192 24.544-26.048 34.464-38.464 5.088-6.336 10.176-13.376 14.08-20.736 3.776-7.04 7.936-16.96 7.936-28.512H160z m-32 0a16 16 0 0 1 16-16v-64A80 80 0 0 0 64 464h64z m16-16c7.008 0 10.656 2.08 12.256 3.52 1.152 1.088 3.744 4.064 3.744 12.48h64c0-23.552-8.16-44.608-24.384-59.52C183.84 389.888 163.52 384 144 384v64zM96 768h96v-64H96v64z m-32 112A80 80 0 0 0 144 960v-64a16 16 0 0 1-16-16H64zM144 960c19.52 0 39.84-5.92 55.616-20.48 16.224-14.912 24.384-35.936 24.384-59.52H160c0 8.448-2.56 11.392-3.744 12.48-1.6 1.44-5.248 3.52-12.256 3.52v64z m0-144l21.76 23.456h0.032v-0.064l0.096-0.032 0.16-0.192 0.576-0.512a171.872 171.872 0 0 0 8.064-8.128c5.024-5.28 11.808-12.8 18.656-21.696 6.784-8.8 14.112-19.552 19.872-31.264 5.6-11.424 10.784-25.92 10.784-41.568H160c0 2.048-0.832 6.432-4.224 13.344a125.12 125.12 0 0 1-13.12 20.416 215.552 215.552 0 0 1-20.192 22.56l-0.256 0.224v0.032l21.792 23.424z m80 64c0-21.376-13.536-38.56-22.08-48.64-8.992-10.56-23.68-25.312-34.272-36.928L120.32 837.568c14.784 16.192 24.064 24.96 32.768 35.2 3.808 4.48 5.856 7.456 6.848 9.28 0.992 1.856 0.032 0.864 0.032-2.048h64z" fill="#000000" p-id="3886"></path></svg>