<?xml version="1.0" standalone="no"?><!DOCTYPE svg PUBLIC "-//W3C//DTD SVG 1.1//EN" "http://www.w3.org/Graphics/SVG/1.1/DTD/svg11.dtd"><svg t="1719754911104" class="icon" viewBox="0 0 1024 1024" version="1.1" xmlns="http://www.w3.org/2000/svg" p-id="8311" xmlns:xlink="http://www.w3.org/1999/xlink" width="200" height="200"><path d="M938.666667 119.466667H85.333333a34.133333 34.133333 0 0 1 0-68.266667h853.333334a34.133333 34.133333 0 0 1 0 68.266667z" p-id="8312"></path><path d="M853.333333 955.733333H597.333333a17.066667 17.066667 0 0 1-17.066666-17.066666V85.333333a17.066667 17.066667 0 1 1 34.133333 0v44.1344l56.200533-56.200533a17.0496 17.0496 0 1 1 24.132267 24.132267L614.4 177.732267v122.402133L841.2672 73.2672A17.220267 17.220267 0 0 1 853.282133 68.266667h0.1024a16.861867 16.861867 0 0 1 12.014934 5.000533 16.9472 16.9472 0 0 1 5.000533 12.014933V938.666667a17.066667 17.066667 0 0 1-17.066667 17.066666z m-129.467733-34.133333H836.266667v-112.401067L723.8656 921.6zM614.4 921.6h61.201067L836.266667 760.9344v-122.402133l-221.866667 221.866666V921.6z m0-231.867733v122.402133l221.866667-221.866667v-122.402133l-221.866667 221.866667z m0-170.666667v122.402133l221.866667-221.866666v-122.402134l-221.866667 221.866667z m0-170.666667v122.402134l221.866667-221.866667V126.532267l-221.866667 221.866666zM426.666667 529.92H170.666667a17.066667 17.066667 0 0 1-17.066667-17.066667V85.333333a17.066667 17.066667 0 0 1 34.133333 0v410.453334h221.866667V85.333333a17.066667 17.066667 0 0 1 34.133333 0v427.52a17.066667 17.066667 0 0 1-17.066666 17.066667z" p-id="8313"></path></svg>