<?xml version="1.0" standalone="no"?><!DOCTYPE svg PUBLIC "-//W3C//DTD SVG 1.1//EN" "http://www.w3.org/Graphics/SVG/1.1/DTD/svg11.dtd"><svg t="1719754946476" class="icon" viewBox="0 0 1024 1024" version="1.1" xmlns="http://www.w3.org/2000/svg" p-id="9452" xmlns:xlink="http://www.w3.org/1999/xlink" width="200" height="200"><path d="M853.333333 955.733333a17.066667 17.066667 0 0 1-17.066666-17.066666v-129.467734l-141.533867 141.533867a17.0496 17.0496 0 1 1-24.132267-24.132267L836.266667 760.9344v-122.402133l-221.866667 221.866666V938.666667a17.066667 17.066667 0 1 1-34.133333 0V85.333333a17.066667 17.066667 0 0 1 17.066666-17.066666h256.0512a16.861867 16.861867 0 0 1 12.014934 5.000533 16.9472 16.9472 0 0 1 5.000533 12.014933V938.666667a17.066667 17.066667 0 0 1-17.066667 17.066666zM614.4 689.732267v122.402133l221.866667-221.866667v-122.402133l-221.866667 221.866667z m0-170.666667v122.402133l221.866667-221.866666v-122.402134l-221.866667 221.866667z m0-170.666667v122.402134l221.866667-221.866667V126.532267l-221.866667 221.866666z m0-170.666666v122.402133L812.1344 102.4h-122.402133L614.4 177.732267zM614.4 102.4v27.067733L641.467733 102.4H614.4zM426.666667 955.733333a17.066667 17.066667 0 0 1-17.066667-17.066666V528.213333H187.733333V938.666667a17.066667 17.066667 0 1 1-34.133333 0V511.146667a17.066667 17.066667 0 0 1 17.066667-17.066667h256a17.066667 17.066667 0 0 1 17.066666 17.066667V938.666667a17.066667 17.066667 0 0 1-17.066666 17.066666z" p-id="9453"></path><path d="M938.666667 972.8H85.333333a34.133333 34.133333 0 0 1 0-68.266667h853.333334a34.133333 34.133333 0 0 1 0 68.266667z" p-id="9454"></path></svg>