<?xml version="1.0" standalone="no"?><!DOCTYPE svg PUBLIC "-//W3C//DTD SVG 1.1//EN" "http://www.w3.org/Graphics/SVG/1.1/DTD/svg11.dtd"><svg t="1719755051205" class="icon" viewBox="0 0 1024 1024" version="1.1" xmlns="http://www.w3.org/2000/svg" p-id="13197" xmlns:xlink="http://www.w3.org/1999/xlink" width="200" height="200"><path d="M597.333333 955.733333a17.015467 17.015467 0 0 1-17.0496-17.015466v-0.017067V85.333333a17.066667 17.066667 0 0 1 17.066667-17.066666h256.0512a16.861867 16.861867 0 0 1 12.014933 5.000533 16.9472 16.9472 0 0 1 4.983467 12.014933V938.666667a17.066667 17.066667 0 0 1-17.066667 17.066666H597.333333z m211.8656-34.133333H836.266667v-27.067733L809.198933 921.6z m-170.666666 0h122.402133L836.266667 846.267733v-122.402133L638.532267 921.6zM614.4 775.0656v122.402133l221.866667-221.866666v-122.402134l-221.866667 221.866667z m0-170.666667v122.402134l217.480533-217.480534a16.3328 16.3328 0 0 1 4.386134-3.1744v-38.280533l-56.200534 56.200533a17.0496 17.0496 0 1 1-24.132266-24.132266L836.266667 419.601067v-122.402134l-221.866667 221.866667v37.0688l56.200533-56.200533a17.0496 17.0496 0 1 1 24.132267 24.132266L614.4 604.398933z m0-256v122.402134l221.866667-221.866667V126.532267l-221.866667 221.866666z m0-170.666666v122.402133L812.1344 102.4h-122.402133L614.4 177.732267zM614.4 102.4v27.067733L641.467733 102.4H614.4zM426.666667 785.066667H170.666667a17.066667 17.066667 0 0 1-17.066667-17.066667V256a17.066667 17.066667 0 0 1 17.066667-17.066667h256a17.066667 17.066667 0 0 1 17.066666 17.066667v512a17.066667 17.066667 0 0 1-17.066666 17.066667z m-238.933334-34.133334h221.866667V273.066667H187.733333v477.866666z" p-id="13198"></path><path d="M938.666667 546.133333H85.333333a34.133333 34.133333 0 0 1 0-68.266666h853.333334a34.133333 34.133333 0 0 1 0 68.266666z" p-id="13199"></path></svg>