<?xml version="1.0" standalone="no"?><!DOCTYPE svg PUBLIC "-//W3C//DTD SVG 1.1//EN" "http://www.w3.org/Graphics/SVG/1.1/DTD/svg11.dtd"><svg t="1719754922875" class="icon" viewBox="0 0 1024 1024" version="1.1" xmlns="http://www.w3.org/2000/svg" p-id="8470" xmlns:xlink="http://www.w3.org/1999/xlink" width="200" height="200"><path d="M85.333333 870.4a17.015467 17.015467 0 0 1-17.066666-17.015467v-0.017066V597.333333a17.066667 17.066667 0 0 1 17.066666-17.066666h853.333334a17.066667 17.066667 0 1 1 0 34.133333h-78.267734l-221.866666 221.866667h122.402133l165.666133-165.666134a17.0496 17.0496 0 1 1 24.132267 24.132267L809.198933 836.266667H938.666667a17.066667 17.066667 0 1 1 0 34.133333H85.333333z m382.532267-34.133333h122.402133l221.866667-221.866667h-122.402133l-221.866667 221.866667z m-170.666667 0h122.402134l221.866666-221.866667h-122.402133l-221.866667 221.866667z m-170.666666 0h122.402133l221.866667-221.866667h-122.402134l-221.866666 221.866667zM102.4 689.732267v122.402133L300.1344 614.4h-122.402133L102.4 689.732267zM102.4 614.4v27.067733L129.467733 614.4H102.4z m836.266667-170.666667H511.146667a17.066667 17.066667 0 0 1-17.066667-17.066666V170.666667a17.066667 17.066667 0 0 1 17.066667-17.066667H938.666667a17.066667 17.066667 0 1 1 0 34.133333H528.213333v221.866667H938.666667a17.066667 17.066667 0 1 1 0 34.133333z" p-id="8471"></path><path d="M938.666667 972.8a34.133333 34.133333 0 0 1-34.133334-34.133333V85.333333a34.133333 34.133333 0 0 1 68.266667 0v853.333334a34.133333 34.133333 0 0 1-34.133333 34.133333z" p-id="8472"></path></svg>