<?xml version="1.0" standalone="no"?><!DOCTYPE svg PUBLIC "-//W3C//DTD SVG 1.1//EN" "http://www.w3.org/Graphics/SVG/1.1/DTD/svg11.dtd"><svg t="1719754956647" class="icon" viewBox="0 0 1024 1024" version="1.1" xmlns="http://www.w3.org/2000/svg" p-id="9611" xmlns:xlink="http://www.w3.org/1999/xlink" width="200" height="200"><path d="M938.666667 870.4H85.333333a17.066667 17.066667 0 0 1-12.066133-29.1328L300.1344 614.4h-122.402133l-80.3328 80.3328a17.0496 17.0496 0 1 1-24.132267-24.132267L129.467733 614.4H85.333333a17.066667 17.066667 0 1 1 0-34.133333h853.333334a17.066667 17.066667 0 0 1 17.066666 17.066666v256a17.066667 17.066667 0 0 1-17.066666 17.066667z m-129.467734-34.133333H921.6v-112.401067L809.198933 836.266667z m-170.666666 0h122.402133L921.6 675.601067V614.4h-61.201067l-221.866666 221.866667z m-170.666667 0h122.402133l221.866667-221.866667h-122.402133l-221.866667 221.866667z m-170.666667 0h122.402134l221.866666-221.866667h-122.402133l-221.866667 221.866667z m-170.666666 0h122.402133l221.866667-221.866667h-122.402134l-221.866666 221.866667zM512.853333 443.733333H85.333333a17.066667 17.066667 0 0 1 0-34.133333h410.453334V187.733333H85.333333a17.066667 17.066667 0 0 1 0-34.133333h427.52a17.066667 17.066667 0 0 1 17.066667 17.066667v256a17.066667 17.066667 0 0 1-17.066667 17.066666z" p-id="9612"></path><path d="M85.333333 972.8a34.133333 34.133333 0 0 1-34.133333-34.133333V85.333333a34.133333 34.133333 0 0 1 68.266667 0v853.333334a34.133333 34.133333 0 0 1-34.133334 34.133333z" p-id="9613"></path></svg>