<?xml version="1.0" standalone="no"?><!DOCTYPE svg PUBLIC "-//W3C//DTD SVG 1.1//EN" "http://www.w3.org/Graphics/SVG/1.1/DTD/svg11.dtd"><svg t="1719754999136" class="icon" viewBox="0 0 1024 1024" version="1.1" xmlns="http://www.w3.org/2000/svg" p-id="10583" xmlns:xlink="http://www.w3.org/1999/xlink" width="200" height="200"><path d="M512 972.8a34.133333 34.133333 0 0 1-34.133333-34.133333V85.333333a34.133333 34.133333 0 0 1 68.266666 0v853.333334a34.133333 34.133333 0 0 1-34.133333 34.133333z" p-id="10584"></path><path d="M938.666667 870.4H85.282133a16.861867 16.861867 0 0 1-12.014933-5.000533A17.220267 17.220267 0 0 1 68.266667 853.384533V597.333333a17.066667 17.066667 0 0 1 17.066666-17.066666h853.384534a16.861867 16.861867 0 0 1 12.014933 5.000533 16.9472 16.9472 0 0 1 5.000533 12.014933V853.333333a17.066667 17.066667 0 0 1-17.066666 17.066667z m-44.1344-34.133333H921.6v-27.067734L894.532267 836.266667z m-170.666667 0h122.402133L921.6 760.9344v-122.402133L723.8656 836.266667z m-170.666667 0h122.402134l221.866666-221.866667h-122.402133l-221.866667 221.866667z m-85.333333 0h37.0688l221.866667-221.866667h-122.402134l-80.3328 80.3328a17.0496 17.0496 0 1 1-24.132266-24.132267L556.1344 614.4h-37.0688l-221.866667 221.866667h122.402134l80.3328-80.3328a17.0496 17.0496 0 1 1 24.132266 24.132266L467.8656 836.266667z m-341.333333 0h122.402133l221.866667-221.866667h-122.402134l-221.866666 221.866667zM102.4 689.732267v122.402133L300.1344 614.4h-122.402133L102.4 689.732267zM102.4 614.4v27.067733L129.467733 614.4H102.4z m665.6-170.666667H256a17.066667 17.066667 0 0 1-17.066667-17.066666V170.666667a17.066667 17.066667 0 0 1 17.066667-17.066667h512a17.066667 17.066667 0 0 1 17.066667 17.066667v256a17.066667 17.066667 0 0 1-17.066667 17.066666z m-494.933333-34.133333h477.866666V187.733333H273.066667v221.866667z" p-id="10585"></path></svg>