<?xml version="1.0" standalone="no"?><!DOCTYPE svg PUBLIC "-//W3C//DTD SVG 1.1//EN" "http://www.w3.org/Graphics/SVG/1.1/DTD/svg11.dtd"><svg t="1717984711659" class="icon" viewBox="0 0 1024 1024" version="1.1" xmlns="http://www.w3.org/2000/svg" p-id="43134" xmlns:xlink="http://www.w3.org/1999/xlink" width="200" height="200"><path d="M479.68 759.04a40.128 40.128 0 0 0 64.64 0l179.392-245.312a8 8 0 0 0-6.464-12.736h-59.52a8 8 0 0 0-6.4 3.264l-102.336 139.904V132.992a8 8 0 0 0-8-8h-56a8 8 0 0 0-8 8v513.92L372.672 504.32a8 8 0 0 0-6.4-3.2h-59.52a8 8 0 0 0-6.4 12.672l179.328 245.312z m423.232 59.968H121.088c-4.992 0-9.088 3.584-9.088 8v56c0 4.416 4.096 8 9.088 8h781.824c4.992 0 9.088-3.584 9.088-8v-56c0-4.48-4.096-8-9.088-8z" fill="#000000" p-id="43135"></path></svg>