<?xml version="1.0" standalone="no"?><!DOCTYPE svg PUBLIC "-//W3C//DTD SVG 1.1//EN" "http://www.w3.org/Graphics/SVG/1.1/DTD/svg11.dtd"><svg viewBox="0 0 1092 1024" version="1.1" xmlns="http://www.w3.org/2000/svg" xmlns:xlink="http://www.w3.org/1999/xlink" width="213.28125" height="200"><path d="M316.074667 778.786133c-1.911467-39.253333-3.754667-46.830933-40.004267-12.9024-27.8528 23.620267-54.135467 54.135467-54.135467 54.135467-2.2528 0.8192-63.488-26.897067-105.130666-132.232533-41.437867-105.130667 8.192-254.1568 30.446933-293.956267 17.271467-18.6368 28.535467-76.8-27.0336-25.736533C32.768 454.929067-24.1664 580.130133 10.103467 719.189333c32.085333 129.365333 104.174933 191.829333 114.210133 196.539734 0.750933-0.546133 1.2288-0.682667 1.2288 0.273066 0 0-0.546133 0-1.2288-0.273066-3.8912 2.4576-18.8416 21.230933-50.107733 53.0432-29.559467 26.897067-22.801067 35.362133 11.946666 39.867733 65.194667 6.280533 252.450133 10.8544 252.450134 10.8544s-15.701333-175.991467-22.528-240.708267zM657.271467 72.840533c40.072533 0 72.772267 32.699733 72.772266 72.772267V436.906667c0 40.1408-32.699733 72.840533-72.772266 72.840533H366.045867A72.9088 72.9088 0 0 1 293.205333 436.906667V145.6128c0-40.072533 32.768-72.772267 72.840534-72.772267h291.293866m0-72.840533H366.045867a145.681067 145.681067 0 0 0-145.6128 145.6128V436.906667c0 80.418133 65.194667 145.6128 145.6128 145.6128h291.293866A145.6128 145.6128 0 0 0 802.952533 436.906667V145.6128A145.6128 145.6128 0 0 0 657.408 0zM1092.266667 582.519467V873.813333a145.6128 145.6128 0 0 1-145.6128 145.681067H655.36A145.681067 145.681067 0 0 1 509.7472 873.813333V655.36h147.592533c120.4224 0 218.453333-98.030933 218.453334-218.453333h70.8608C1027.072 436.906667 1092.266667 502.1696 1092.266667 582.519467z" fill="black" ></path></svg>