<?xml version="1.0" standalone="no"?><!DOCTYPE svg PUBLIC "-//W3C//DTD SVG 1.1//EN" "http://www.w3.org/Graphics/SVG/1.1/DTD/svg11.dtd"><svg viewBox="0 0 1024 1024" version="1.1" xmlns="http://www.w3.org/2000/svg" xmlns:xlink="http://www.w3.org/1999/xlink" width="200" height="200"><path d="M1002.24 480l-124.8-119.04a19.2 19.2 0 0 0-29.44 4.48l-83.84 151.04a17.92 17.92 0 0 0 19.2 26.88l57.6-8.32a456.32 456.32 0 0 1-33.92 232.96c-3.84 10.24 3.2 16 11.52 8.32a313.6 313.6 0 0 0 115.84-256l58.24-8.32a18.56 18.56 0 0 0 9.6-32z" fill="black"></path><path d="M748.16 591.36l-131.84-22.4 144.64-131.84a25.6 25.6 0 0 0-12.8-44.16l-112-18.56L558.72 448l64 10.24L418.56 640l-256-64L256 504.96l-102.4-26.88-138.24 102.4a25.6 25.6 0 0 0 8.96 45.44l148.48 36.48-157.44 116.48a25.6 25.6 0 0 0 8.96 45.44l403.84 98.56h6.4a28.8 28.8 0 0 0 17.28-6.4l309.12-281.6a25.6 25.6 0 0 0-12.8-43.52z m-329.6 244.48l-256-64 115.84-85.76 151.68 37.12h6.4a24.96 24.96 0 0 0 17.28-6.4L538.88 640l81.28 13.44z" fill="black"></path><path d="M22.4 427.52l404.48 99.2a25.6 25.6 0 0 0 21.12-6.4l309.76-280.96a25.6 25.6 0 0 0-13.44-44.16l-379.52-64a26.88 26.88 0 0 0-19.2 5.12L13.44 384a25.6 25.6 0 0 0 8.96 43.52z" fill="black"></path></svg>