<?xml version="1.0" standalone="no"?><!DOCTYPE svg PUBLIC "-//W3C//DTD SVG 1.1//EN" "http://www.w3.org/Graphics/SVG/1.1/DTD/svg11.dtd"><svg viewBox="0 0 1024 1024" version="1.1" xmlns="http://www.w3.org/2000/svg" xmlns:xlink="http://www.w3.org/1999/xlink" width="200" height="200"><path d="M138.88 555.456h277.696a138.88 138.88 0 0 0 138.88-138.88v-277.76A138.88 138.88 0 0 0 416.576 0h-277.76A138.88 138.88 0 0 0 0 138.88v277.696c0 76.672 62.08 138.88 138.88 138.88z m583.808-326.016c1.728 37.44 3.52 44.672 38.144 12.288 26.496-22.464 51.584-51.584 51.584-51.584 2.112-0.768 60.544 25.6 100.224 126.08 39.488 100.288-7.808 242.368-28.992 280.32-16.512 17.792-27.264 73.216 25.728 24.576 83.264-82.752 137.664-202.24 104.96-334.72-30.528-123.392-99.328-182.912-108.8-187.392-0.768 0.512-1.216 0.64-1.216-0.256 0 0 0.512-0.064 1.152 0.256 3.712-2.368 17.92-20.288 47.808-50.56 28.16-25.664 21.76-33.728-11.392-38.016C879.744 4.288 701.248 0 701.248 0s14.912 167.744 21.44 229.44z m110.464 326.016v277.76a138.88 138.88 0 0 1-138.88 138.816H416.64a138.88 138.88 0 0 1-138.88-138.88V624.896h69.44v208.256c0 38.272 31.168 69.44 69.44 69.44h277.76c38.208 0 69.376-31.168 69.376-69.44v-277.76c0-38.208-31.168-69.376-69.44-69.376H612.032c7.808-21.76 12.8-44.928 12.8-69.44h69.44a138.88 138.88 0 0 1 138.88 138.88z" fill="black"></path></svg>