<?xml version="1.0" standalone="no"?><!DOCTYPE svg PUBLIC "-//W3C//DTD SVG 1.1//EN" "http://www.w3.org/Graphics/SVG/1.1/DTD/svg11.dtd"><svg viewBox="0 0 1025 1024" version="1.1" xmlns="http://www.w3.org/2000/svg" xmlns:xlink="http://www.w3.org/1999/xlink" width="200.1953125" height="200"><path d="M1011.2 622.08l-55.68-17.28a314.24 314.24 0 0 0-76.16-271.36c-6.4-8.32-14.72-3.84-12.16 6.4a448 448 0 0 1 0 236.8l-55.68-17.92a18.56 18.56 0 0 0-22.4 24.32l59.52 161.92a19.2 19.2 0 0 0 28.16 8.96l142.08-98.56a19.2 19.2 0 0 0-7.68-33.28zM428.16 724.48h6.4a24.96 24.96 0 0 0 17.28-6.4l309.12-281.6a25.6 25.6 0 0 0-12.8-44.16L614.4 370.56l145.28-128a25.6 25.6 0 0 0-13.44-44.16l-379.52-64h-3.84a22.4 22.4 0 0 0-15.36 5.12L13.44 384a25.6 25.6 0 0 0 8.96 45.44l150.4 37.12L15.36 580.48a25.6 25.6 0 0 0 8.96 45.44z m-51.2-508.16L618.24 256 417.28 439.68l-256-64zM276.48 489.6l150.4 37.12h5.76a24.96 24.96 0 0 0 15.36-6.4l89.6-79.36 82.56 14.08L418.56 640l-256-64z" fill="black"></path><path d="M757.12 597.12L640 576l-180.48 162.56a24.96 24.96 0 0 1-17.28 6.4h-6.4l-268.8-64-142.72 103.04a25.6 25.6 0 0 0 8.96 48l404.48 99.2h5.76a24.96 24.96 0 0 0 17.28-7.04L768 640a25.6 25.6 0 0 0-10.88-42.88z" fill="black"></path></svg>