<?xml version="1.0" standalone="no"?><!DOCTYPE svg PUBLIC "-//W3C//DTD SVG 1.1//EN" "http://www.w3.org/Graphics/SVG/1.1/DTD/svg11.dtd"><svg t="1764578073499" class="icon" viewBox="0 0 1024 1024" version="1.1" xmlns="http://www.w3.org/2000/svg" p-id="38220" xmlns:xlink="http://www.w3.org/1999/xlink" width="200" height="200"><path d="M64 617.6c82.56 58.432 233.6 85.696 384 85.696h1.92a287.36 287.36 0 0 0 99.648 252.224C517.248 958.4 483.2 960 448 960c-205.952 0-374.144-54.272-383.552-122.304L64 831.616V617.6zM736 512a224 224 0 1 1 0 448 224 224 0 0 1 0-448z m-90.496 133.504a32 32 0 0 0 0 45.248l45.248 45.248-45.248 45.248a32 32 0 0 0 45.248 45.248l45.248-45.248 45.248 45.248a32 32 0 0 0 45.248-45.248l-45.248-45.248 45.248-45.248a32 32 0 0 0-45.248-45.248l-45.248 45.248-45.248-45.248a32 32 0 0 0-45.248 0zM832 299.264l0.064 165.12a288.128 288.128 0 0 0-368.192 177.088L448 641.664c-205.952 0-374.144-54.272-383.552-122.368L64 513.28V299.264c82.56 58.432 233.6 85.632 384 85.632s301.44-27.2 384-85.632zM448 64c212.096 0 384 57.472 384 128.384 0 45.824-73.216 88.192-192 111.168-118.784 22.912-265.216 22.912-384 0-118.784-22.976-192-65.28-192-111.168C64 121.472 235.904 64 448 64z" p-id="38221"></path></svg>