<?xml version="1.0" standalone="no"?><!DOCTYPE svg PUBLIC "-//W3C//DTD SVG 1.1//EN" "http://www.w3.org/Graphics/SVG/1.1/DTD/svg11.dtd"><svg t="1764578165822" class="icon" viewBox="0 0 1024 1024" version="1.1" xmlns="http://www.w3.org/2000/svg" xmlns:xlink="http://www.w3.org/1999/xlink" width="200" height="200"><path id="svg_1" p-id="38221" d="m64,617.6c82.56,58.432 233.6,85.696 384,85.696l1.92,0a287.36,287.36 0 0 0 99.648,252.224c-32.32,2.88 -66.368,4.48 -101.568,4.48c-205.952,0 -374.144,-54.272 -383.552,-122.304l-0.448,-6.08l0,-214.016zm672,-105.6a224,224 0 1 1 0,448a224,224 0 0 1 0,-448zm-108.372,290.624l-2.124,46.62401l47.872,-4.37601l62.624,-63.624l72.248,-72.248l6.936,-6.936l11.312,-11.312a32,32 0 0 0 -45.248,-45.248l-11.312,11.312l-15.936,15.936l-63.248,63.248m141.248,-436.736l0.064,165.12a288.128,288.128 0 0 0 -368.192,177.088l-15.872,0.192c-205.952,0 -374.144,-54.272 -383.552,-122.368l-0.448,-6.016l0,-214.016c82.56,58.432 233.6,85.632 384,85.632s301.44,-27.2 384,-85.632zm-384,-235.264c212.096,0 384,57.472 384,128.384c0,45.824 -73.216,88.192 -192,111.168c-118.784,22.912 -265.216,22.912 -384,0c-118.784,-22.976 -192,-65.28 -192,-111.168c0,-70.912 171.904,-128.384 384,-128.384z"/>
  <rect transform="rotate(46 793.584 678.261)" stroke="null" id="svg_2" height="5.9741" width="75.82473" y="675.27439" x="755.67123"/></svg>