<?xml version="1.0" standalone="no"?><!DOCTYPE svg PUBLIC "-//W3C//DTD SVG 1.1//EN" "http://www.w3.org/Graphics/SVG/1.1/DTD/svg11.dtd"><svg t="1719758766576" class="icon" viewBox="0 0 1028 1024" version="1.1" xmlns="http://www.w3.org/2000/svg" p-id="111402" xmlns:xlink="http://www.w3.org/1999/xlink" width="200.78125" height="200"><path d="M356.912863 679.834025H21.244813c-8.497925 0-21.244813-8.497925-21.244813-21.244813V21.244813C0 8.497925 12.746888 0 21.244813 0h637.344399c12.746888 0 21.244813 8.497925 21.244813 21.244813v331.419087c0 12.746888-8.497925 21.244813-21.244813 21.244814s-21.244813-8.497925-21.244814-21.244814V42.489627H42.489627v594.854771h310.174273c12.746888 0 21.244813 8.497925 21.244814 21.244814s-8.497925 21.244813-16.995851 21.244813z" p-id="111403"></path><path d="M1002.755187 1024H356.912863c-12.746888 0-21.244813-8.497925-21.244813-21.244813v-344.165975c0-12.746888 8.497925-21.244813 21.244813-21.244814s21.244813 8.497925 21.244813 21.244814v322.921161h603.352697V373.908714h-322.921161c-12.746888 0-21.244813-8.497925-21.244814-21.244814s8.497925-21.244813 21.244814-21.244813h344.165975c12.746888 0 21.244813 8.497925 21.244813 21.244813v645.842324c0 12.746888-8.497925 25.493776-21.244813 25.493776z" p-id="111404"></path><path d="M399.40249 679.834025h-42.489627c-12.746888 0-21.244813-8.497925-21.244813-21.244813v-42.489627c0-12.746888 8.497925-21.244813 21.244813-21.244813s21.244813 8.497925 21.244813 21.244813v21.244813h21.244814c12.746888 0 21.244813 8.497925 21.244813 21.244814s-12.746888 21.244813-21.244813 21.244813zM356.912863 548.116183c-12.746888 0-21.244813-8.497925-21.244813-21.244814v-42.489626c0-12.746888 8.497925-21.244813 21.244813-21.244814s21.244813 8.497925 21.244813 21.244814v42.489626c0 12.746888-12.746888 21.244813-21.244813 21.244814zM356.912863 416.39834c-12.746888 0-21.244813-8.497925-21.244813-21.244813v-42.489627c0-12.746888 8.497925-21.244813 21.244813-21.244813h42.489627c12.746888 0 21.244813 8.497925 21.244813 21.244813s-12.746888 21.244813-21.244813 21.244814h-21.244814v21.244813c0 12.746888-12.746888 21.244813-21.244813 21.244813zM531.120332 373.908714h-42.489627c-12.746888 0-21.244813-8.497925-21.244813-21.244814s8.497925-21.244813 21.244813-21.244813h42.489627c8.497925 0 21.244813 8.497925 21.244813 21.244813s-12.746888 21.244813-21.244813 21.244814zM658.589212 416.39834c-12.746888 0-21.244813-8.497925-21.244814-21.244813v-21.244813h-21.244813c-12.746888 0-21.244813-8.497925-21.244813-21.244814s8.497925-21.244813 21.244813-21.244813h42.489627c12.746888 0 21.244813 8.497925 21.244813 21.244813v42.489627c0 12.746888-8.497925 21.244813-21.244813 21.244813zM658.589212 548.116183c-12.746888 0-21.244813-8.497925-21.244814-21.244814v-42.489626c0-12.746888 8.497925-21.244813 21.244814-21.244814s21.244813 8.497925 21.244813 21.244814v42.489626c0 12.746888-8.497925 21.244813-21.244813 21.244814zM658.589212 679.834025h-42.489627c-12.746888 0-21.244813-8.497925-21.244813-21.244813s8.497925-21.244813 21.244813-21.244814h21.244813v-21.244813c0-12.746888 8.497925-21.244813 21.244814-21.244813s21.244813 8.497925 21.244813 21.244813v42.489627c0 12.746888-8.497925 21.244813-21.244813 21.244813zM531.120332 679.834025h-42.489627c-12.746888 0-21.244813-8.497925-21.244813-21.244813s8.497925-21.244813 21.244813-21.244814h42.489627c12.746888 0 21.244813 8.497925 21.244813 21.244814s-12.746888 21.244813-21.244813 21.244813z" p-id="111405"></path></svg>