<?xml version="1.0" standalone="no"?><!DOCTYPE svg PUBLIC "-//W3C//DTD SVG 1.1//EN" "http://www.w3.org/Graphics/SVG/1.1/DTD/svg11.dtd"><svg t="1727708413718" class="icon" viewBox="0 0 1024 1024" version="1.1" xmlns="http://www.w3.org/2000/svg" p-id="12500" xmlns:xlink="http://www.w3.org/1999/xlink" width="200" height="200"><path d="M444.8256 683.7248c9.984-9.984 26.2144-9.984 36.1984 0L616.5504 819.2l109.8752 109.8752C742.5536 945.2032 731.136 972.8 708.352 972.8L462.9504 972.8 217.5488 972.8c-22.784 0-34.2528-27.5968-18.1248-43.7248L309.3504 819.2 444.8256 683.7248z" p-id="12501" data-spm-anchor-id="a313x.search_index.0.i2.23a73a81ADqBJX" class="selected" fill="#2c2c2c"></path><path d="M659.0464 102.4l-196.096 229.4784L266.8544 102.4l196.096 0L659.0464 102.4M714.5984 51.2 462.9504 51.2 211.3024 51.2C189.44 51.2 177.6128 76.8 191.8464 93.44l251.648 294.4512c5.12 5.9904 12.288 8.96 19.456 8.96 7.168 0 14.336-2.9696 19.456-8.96l251.648-294.4512C748.2368 76.8 736.4096 51.2 714.5984 51.2L714.5984 51.2z" p-id="12502" data-spm-anchor-id="a313x.search_index.0.i3.23a73a81ADqBJX" class="selected" fill="#2c2c2c"></path><path d="M868.2496 563.2 768 563.2l0-51.2 100.2496 0L868.2496 563.2zM716.8 563.2l-102.4 0 0-51.2 102.4 0L716.8 563.2zM563.2 563.2 460.8 563.2l0-51.2 102.4 0L563.2 563.2zM409.6 563.2 307.2 563.2l0-51.2 102.4 0L409.6 563.2zM256 563.2 153.6 563.2l0-51.2 102.4 0L256 563.2zM102.4 563.2 0 563.2l0-51.2 102.4 0L102.4 563.2z" p-id="12503" data-spm-anchor-id="a313x.search_index.0.i5.23a73a81ADqBJX" class="selected" fill="#2c2c2c"></path><path d="M843.2128 844.8c-5.8368 0-11.6224-1.9968-16.2304-5.7856-5.888-4.9152-9.3696-12.1344-9.3696-19.8144l0-153.6c0-14.1312 11.4688-25.6 25.6-25.6s25.6 11.4688 25.6 25.6l0 115.6096c39.936-23.1936 104.5504-85.1456 104.5504-243.6096 0-224.1536-129.3312-252.16-134.8608-253.2352-13.824-2.7136-22.9376-16.0256-20.3264-29.8496 2.6112-13.7728 15.104-23.0912 29.5424-20.48 7.2192 1.28 176.8448 34.56 176.8448 303.616 0 268.5952-169.1648 305.3056-176.3328 306.688C846.5408 844.6464 844.8512 844.8 843.2128 844.8z" p-id="12504" data-spm-anchor-id="a313x.search_index.0.i4.23a73a81ADqBJX" class="selected" fill="#2c2c2c"></path></svg>