<?xml version="1.0" standalone="no"?><!DOCTYPE svg PUBLIC "-//W3C//DTD SVG 1.1//EN" "http://www.w3.org/Graphics/SVG/1.1/DTD/svg11.dtd"><svg t="1719804730665" class="icon" viewBox="0 0 1024 1024" version="1.1" xmlns="http://www.w3.org/2000/svg" p-id="167649" xmlns:xlink="http://www.w3.org/1999/xlink" width="200" height="200"><path d="M384 373.333333a10.666667 10.666667 0 0 0-10.666667 10.666667v490.666667c0 5.888 4.778667 10.666667 10.666667 10.666666h490.666667a10.666667 10.666667 0 0 0 10.666666-10.666666V384a10.666667 10.666667 0 0 0-10.666666-10.666667H384zM309.333333 384c0-41.216 33.450667-74.666667 74.666667-74.666667h490.666667c41.216 0 74.666667 33.450667 74.666666 74.666667v490.666667a74.666667 74.666667 0 0 1-74.666666 74.666666H384a74.666667 74.666667 0 0 1-74.666667-74.666666V384z" p-id="167650"></path><path d="M149.333333 138.666667a10.666667 10.666667 0 0 0-10.666666 10.666666V640c0 5.888 4.778667 10.666667 10.666666 10.666667H640a10.666667 10.666667 0 0 0 10.666667-10.666667V149.333333a10.666667 10.666667 0 0 0-10.666667-10.666666H149.333333z m-74.666666 10.666666c0-41.216 33.450667-74.666667 74.666666-74.666666H640c41.216 0 74.666667 33.450667 74.666667 74.666666V640A74.666667 74.666667 0 0 1 640 714.666667H149.333333A74.666667 74.666667 0 0 1 74.666667 640V149.333333z" p-id="167651"></path><path d="M598.613333 318.72a32 32 0 0 1 0 45.226667l-234.666666 234.666666a32 32 0 0 1-45.226667-45.226666l234.666667-234.666667a32 32 0 0 1 45.226666 0zM705.28 425.386667a32 32 0 0 1 0 45.226666l-234.666667 234.666667a32 32 0 1 1-45.226666-45.226667l234.666666-234.666666a32 32 0 0 1 45.226667 0z" p-id="167652"></path></svg>