<?xml version="1.0" standalone="no"?><!DOCTYPE svg PUBLIC "-//W3C//DTD SVG 1.1//EN" "http://www.w3.org/Graphics/SVG/1.1/DTD/svg11.dtd"><svg t="1747895207447" class="icon" viewBox="0 0 1024 1024" version="1.1" xmlns="http://www.w3.org/2000/svg" p-id="32278" xmlns:xlink="http://www.w3.org/1999/xlink" width="200" height="200"><path d="M170.666667 256l-85.333333 0 0 597.333333c0 47.146667 38.186667 85.333333 85.333333 85.333333l597.333333 0 0-85.333333-597.333333 0 0-597.333333zM853.333333 85.333333l-512 0c-47.146667 0-85.333333 38.186667-85.333333 85.333333l0 512c0 47.146667 38.186667 85.333333 85.333333 85.333333l512 0c47.146667 0 85.333333-38.186667 85.333333-85.333333l0-512c0-47.146667-38.186667-85.333333-85.333333-85.333333zM810.666667 469.333333l-170.666667 0 0 170.666667-85.333333 0 0-170.666667-170.666667 0 0-85.333333 170.666667 0 0-170.666667 85.333333 0 0 170.666667 170.666667 0 0 85.333333z" fill="#444444" p-id="32279"></path></svg>