<?xml version="1.0" standalone="no"?><!DOCTYPE svg PUBLIC "-//W3C//DTD SVG 1.1//EN" "http://www.w3.org/Graphics/SVG/1.1/DTD/svg11.dtd"><svg class="icon" viewBox="0 0 1024 1024" version="1.1" xmlns="http://www.w3.org/2000/svg" xmlns:xlink="http://www.w3.org/1999/xlink" width="200" height="200"><path d="M1016.208696 487.513043C1008.417391 476.382609 828.104348 211.478261 512 211.478261S15.582609 476.382609 7.791304 487.513043c-10.017391 14.469565-10.017391 34.504348 0 50.086957C15.582609 547.617391 195.895652 812.521739 512 812.521739s496.417391-264.904348 504.208696-276.034782c10.017391-14.469565 10.017391-34.504348 0-48.973914zM512 723.478261C297.182609 723.478261 150.26087 572.104348 100.173913 512c50.086957-61.217391 195.895652-211.478261 411.826087-211.478261 214.817391 0 361.73913 151.373913 411.826087 211.478261-51.2 61.217391-197.008696 211.478261-411.826087 211.478261z m25.6-394.017391c-48.973913-6.678261-96.834783 5.565217-136.904348 35.617391-81.252174 61.217391-97.947826 176.973913-36.730435 258.226087 30.052174 40.069565 72.347826 64.556522 121.32174 72.347826 8.904348 1.113043 17.808696 2.226087 25.6 2.226087 40.069565 0 77.913043-13.356522 110.191304-36.730435 81.252174-61.217391 97.947826-176.973913 36.730435-258.226087-27.826087-41.182609-71.234783-66.782609-120.208696-73.460869z m44.521739 277.147826c-24.486957 18.921739-55.652174 26.713043-86.817391 22.260869-31.165217-4.452174-58.991304-21.147826-77.913044-45.634782-37.843478-52.313043-27.826087-126.886957 24.486957-165.843479 24.486957-18.921739 55.652174-26.713043 86.817391-22.260869 31.165217 4.452174 58.991304 21.147826 77.913044 45.634782 37.843478 52.313043 27.826087 126.886957-24.486957 165.843479zM577.669565 445.217391c8.904348 7.791304 13.356522 20.034783 13.356522 31.165218 0 11.130435-4.452174 23.373913-13.356522 31.165217-7.791304 7.791304-20.034783 13.356522-31.165217 13.356522-12.243478 0-23.373913-4.452174-31.165218-13.356522-8.904348-8.904348-13.356522-20.034783-13.356521-31.165217 0-12.243478 4.452174-23.373913 13.356521-31.165218 7.791304-8.904348 20.034783-13.356522 31.165218-13.356521 12.243478 1.113043 23.373913 5.565217 31.165217 13.356521z" fill="black"></path></svg>