<?xml version="1.0" standalone="no"?><!DOCTYPE svg PUBLIC "-//W3C//DTD SVG 1.1//EN" "http://www.w3.org/Graphics/SVG/1.1/DTD/svg11.dtd"><svg t="1743061002250" class="icon" viewBox="0 0 1024 1024" version="1.1" xmlns="http://www.w3.org/2000/svg" p-id="1528" xmlns:xlink="http://www.w3.org/1999/xlink" width="200" height="200"><path d="M255.902917 75.49136A63.975729 63.975729 0 0 1 330.370666 12.411291l383.854375 63.97573A63.975729 63.975729 0 0 1 767.70875 139.46709v488.774571a63.975729 63.975729 0 0 1-53.483709 63.080069l-383.854375 63.975729A63.975729 63.975729 0 0 1 255.902917 692.21739V75.49136z m63.975729 0v616.72603l383.854375-63.975729V139.46709l-383.854375-63.97573z" p-id="1529"></path><path d="M0 633.743574C0 539.315397 72.164623 453.715872 191.927188 398.184939v67.174515C109.590424 509.886562 59.945258 570.535553 59.945258 633.743574c0 60.776943 44.527108 119.314735 125.264478 164.737502 68.262103 38.385438 154.629337 63.080069 248.737635 71.716793l-35.314602-35.314603a30.004617 30.004617 0 1 1 42.415908-42.415908L530.998552 882.417233a30.132568 30.132568 0 0 1 0 42.479884l-89.949875 89.949875a29.876666 29.876666 0 0 1-42.415908 0 30.004617 30.004617 0 0 1 0-42.415908l41.520248-41.520248c-106.967419-8.444796-206.001848-36.146287-284.308141-80.161589C55.339006 794.194702 0 717.167924 0 633.743574zM963.666409 633.743574c0-63.271996-49.645166-123.857012-131.981929-168.38412v-67.174515c119.762565 55.530933 191.927188 141.130459 191.927187 235.558635 0 67.046564-35.634481 130.126633-103.128875 182.330828-62.31236 48.173724-147.336104 83.680254-245.794752 102.617069a30.004617 30.004617 0 0 1-11.323704-58.85767c88.030603-16.953568 166.336896-49.325287 220.396387-91.22939 36.466166-28.149321 79.84171-74.467749 79.84171-134.860837z" p-id="1530"></path></svg>