<?xml version="1.0" standalone="no"?><!DOCTYPE svg PUBLIC "-//W3C//DTD SVG 1.1//EN" "http://www.w3.org/Graphics/SVG/1.1/DTD/svg11.dtd"><svg t="1743061128117" class="icon" viewBox="0 0 1024 1024" version="1.1" xmlns="http://www.w3.org/2000/svg" p-id="2416" xmlns:xlink="http://www.w3.org/1999/xlink" width="200" height="200"><path d="M454.016 0c76.16 0 146.624 46.976 200.192 128H579.136C541.888 84.608 498.56 59.968 454.016 59.968c-60.8 0-119.36 44.544-164.8 125.312-38.4 68.288-63.104 154.688-71.744 248.832l35.328-35.328a30.016 30.016 0 1 1 42.432 42.432L205.248 531.2a30.144 30.144 0 0 1-42.432 0L72.704 441.216a29.888 29.888 0 0 1 0-42.432 30.016 30.016 0 0 1 42.432 0l41.536 41.536c8.448-107.008 36.16-206.08 80.192-284.416C293.504 55.36 370.56 0 454.016 0zM454.016 964.032c44.608 0 87.872-24.704 125.12-68.032h75.072c-53.568 81.024-123.968 128-200.192 128-67.072 0-130.176-35.648-182.4-103.168-48.192-62.336-83.712-147.392-102.656-245.888a30.016 30.016 0 0 1 58.88-11.328c16.96 88.064 49.344 166.4 91.264 220.48 28.16 36.48 74.496 79.872 134.912 79.872z" p-id="2417"></path><path d="M392 263.168A64 64 0 0 1 455.616 192h432.768a64 64 0 0 1 63.616 71.168l-57.6 512a64 64 0 0 1-63.616 56.832H513.28a64 64 0 0 1-63.616-56.832l-57.6-512zM455.616 256l57.6 512h317.568l57.6-512H455.68z" p-id="2418"></path></svg>