<?xml version="1.0" standalone="no"?><!DOCTYPE svg PUBLIC "-//W3C//DTD SVG 1.1//EN" "http://www.w3.org/Graphics/SVG/1.1/DTD/svg11.dtd"><svg t="1719758777285" class="icon" viewBox="0 0 1028 1024" version="1.1" xmlns="http://www.w3.org/2000/svg" p-id="111566" xmlns:xlink="http://www.w3.org/1999/xlink" width="200.78125" height="200"><path d="M271.93361 679.834025H21.244813c-8.497925 0-21.244813-8.497925-21.244813-21.244813V21.244813C0 8.497925 12.746888 0 21.244813 0h637.344399c12.746888 0 21.244813 8.497925 21.244813 21.244813v246.439834c0 12.746888-8.497925 21.244813-21.244813 21.244814s-21.244813-8.497925-21.244814-21.244814V42.489627H42.489627v594.854771h225.19502c12.746888 0 21.244813 8.497925 21.244814 21.244814s-8.497925 21.244813-16.995851 21.244813zM1002.755187 1024h-42.489627c-12.746888 0-21.244813-8.497925-21.244813-21.244813s8.497925-21.244813 21.244813-21.244814h21.244813v-21.244813c0-12.746888 8.497925-21.244813 21.244814-21.244813s21.244813 8.497925 21.244813 21.244813v42.489627c0 8.497925-8.497925 21.244813-21.244813 21.244813zM820.049793 1024h-72.232366c-12.746888 0-21.244813-8.497925-21.244813-21.244813s8.497925-21.244813 21.244813-21.244814h72.232366c12.746888 0 21.244813 8.497925 21.244813 21.244814s-8.497925 21.244813-21.244813 21.244813z m-212.448133 0h-72.232365c-12.746888 0-21.244813-8.497925-21.244814-21.244813s8.497925-21.244813 21.244814-21.244814h72.232365c12.746888 0 21.244813 8.497925 21.244813 21.244814s-8.497925 21.244813-21.244813 21.244813zM399.40249 1024h-42.489627c-12.746888 0-21.244813-8.497925-21.244813-21.244813v-42.489627c0-12.746888 8.497925-21.244813 21.244813-21.244813s21.244813 8.497925 21.244813 21.244813v21.244813h21.244814c12.746888 0 21.244813 8.497925 21.244813 21.244814s-12.746888 21.244813-21.244813 21.244813z" p-id="111567"></path><path d="M356.912863 841.294606c-12.746888 0-21.244813-8.497925-21.244813-21.244813v-72.232366c0-12.746888 8.497925-21.244813 21.244813-21.244813s21.244813 8.497925 21.244813 21.244813v72.232366c0 8.497925-12.746888 21.244813-21.244813 21.244813z m0-212.448133c-12.746888 0-21.244813-8.497925-21.244813-21.244813v-72.232365c0-12.746888 8.497925-21.244813 21.244813-21.244814s21.244813 8.497925 21.244813 21.244814v72.232365c0 12.746888-12.746888 21.244813-21.244813 21.244813zM356.912863 416.39834c-12.746888 0-21.244813-8.497925-21.244813-21.244813v-42.489627c0-12.746888 8.497925-21.244813 21.244813-21.244813h42.489627c12.746888 0 21.244813 8.497925 21.244813 21.244813s-12.746888 21.244813-21.244813 21.244814h-21.244814v21.244813c0 12.746888-12.746888 21.244813-21.244813 21.244813zM820.049793 373.908714h-72.232366c-12.746888 0-21.244813-8.497925-21.244813-21.244814s8.497925-21.244813 21.244813-21.244813h72.232366c12.746888 0 21.244813 8.497925 21.244813 21.244813s-8.497925 21.244813-21.244813 21.244814z m-212.448133 0h-72.232365c-12.746888 0-21.244813-8.497925-21.244814-21.244814s8.497925-21.244813 21.244814-21.244813h72.232365c12.746888 0 21.244813 8.497925 21.244813 21.244813s-8.497925 21.244813-21.244813 21.244814zM1002.755187 416.39834c-12.746888 0-21.244813-8.497925-21.244814-21.244813v-21.244813h-21.244813c-12.746888 0-21.244813-8.497925-21.244813-21.244814s8.497925-21.244813 21.244813-21.244813h42.489627c12.746888 0 21.244813 8.497925 21.244813 21.244813v42.489627c0 12.746888-8.497925 21.244813-21.244813 21.244813zM1002.755187 841.294606c-12.746888 0-21.244813-8.497925-21.244814-21.244813v-72.232366c0-12.746888 8.497925-21.244813 21.244814-21.244813s21.244813 8.497925 21.244813 21.244813v72.232366c0 8.497925-8.497925 21.244813-21.244813 21.244813z m0-212.448133c-12.746888 0-21.244813-8.497925-21.244814-21.244813v-72.232365c0-12.746888 8.497925-21.244813 21.244814-21.244814s21.244813 8.497925 21.244813 21.244814v72.232365c0 12.746888-8.497925 21.244813-21.244813 21.244813z" p-id="111568"></path></svg>