<?xml version="1.0" standalone="no"?><!DOCTYPE svg PUBLIC "-//W3C//DTD SVG 1.1//EN" "http://www.w3.org/Graphics/SVG/1.1/DTD/svg11.dtd"><svg t="1719758788035" class="icon" viewBox="0 0 1028 1024" version="1.1" xmlns="http://www.w3.org/2000/svg" p-id="111729" xmlns:xlink="http://www.w3.org/1999/xlink" width="200.78125" height="200"><path d="M658.589212 373.908714c-12.746888 0-21.244813-8.497925-21.244814-21.244814v-42.489626c0-12.746888 8.497925-21.244813 21.244814-21.244813s21.244813 8.497925 21.244813 21.244813v42.489626c0 12.746888-8.497925 21.244813-21.244813 21.244814zM658.589212 233.692946c-8.497925 0-21.244813-8.497925-21.244814-21.244813V161.460581c0-12.746888 8.497925-21.244813 21.244814-21.244813s21.244813 12.746888 21.244813 21.244813V212.448133c0 12.746888-8.497925 21.244813-21.244813 21.244813zM658.589212 84.979253c-8.497925 0-21.244813-8.497925-21.244814-21.244813V42.489627h-21.244813c-8.497925 0-21.244813-8.497925-21.244813-21.244814s12.746888-21.244813 21.244813-21.244813h42.489627c12.746888 0 21.244813 8.497925 21.244813 21.244813v42.489627c0 12.746888-8.497925 21.244813-21.244813 21.244813zM480.13278 42.489627H412.149378c-12.746888 0-21.244813-8.497925-21.244814-21.244814s8.497925-21.244813 21.244814-21.244813h67.983402c12.746888 0 21.244813 8.497925 21.244813 21.244813s-8.497925 21.244813-21.244813 21.244814zM271.93361 42.489627H203.950207c-12.746888 0-21.244813-8.497925-21.244813-21.244814s8.497925-21.244813 21.244813-21.244813h67.983403c12.746888 0 21.244813 8.497925 21.244813 21.244813s-8.497925 21.244813-21.244813 21.244814zM21.244813 84.979253C12.746888 84.979253 0 76.481328 0 63.73444v-42.489627C0 8.497925 12.746888 0 21.244813 0h42.489627c12.746888 0 21.244813 8.497925 21.244813 21.244813s-8.497925 21.244813-21.244813 21.244814H42.489627v21.244813c0 12.746888-8.497925 21.244813-21.244814 21.244813zM21.244813 501.377593c-12.746888 0-21.244813-8.497925-21.244813-21.244813V407.900415c0-12.746888 8.497925-21.244813 21.244813-21.244813s21.244813 8.497925 21.244814 21.244813v67.983402c0 12.746888-8.497925 25.493776-21.244814 25.493776z m0-208.19917c-8.497925 0-21.244813-8.497925-21.244813-21.244813V203.950207c0-12.746888 8.497925-21.244813 21.244813-21.244813s21.244813 8.497925 21.244814 21.244813v67.983403c0 12.746888-8.497925 21.244813-21.244814 21.244813zM63.73444 679.834025h-42.489627c-8.497925 0-21.244813-8.497925-21.244813-21.244813v-42.489627c0-12.746888 12.746888-21.244813 21.244813-21.244813s21.244813 8.497925 21.244814 21.244813v21.244813h21.244813c12.746888 0 21.244813 8.497925 21.244813 21.244814s-8.497925 21.244813-21.244813 21.244813zM212.448133 679.834025H165.709544c-12.746888 0-21.244813-8.497925-21.244814-21.244813s8.497925-21.244813 21.244814-21.244814H212.448133c12.746888 0 21.244813 8.497925 21.244813 21.244814s-8.497925 21.244813-21.244813 21.244813zM356.912863 679.834025h-42.489626c-12.746888 0-21.244813-8.497925-21.244814-21.244813s8.497925-21.244813 21.244814-21.244814h42.489626c12.746888 0 21.244813 8.497925 21.244813 21.244814s-12.746888 21.244813-21.244813 21.244813z" p-id="111730"></path><path d="M356.912863 722.323651c-12.746888 0-21.244813-8.497925-21.244813-21.244813v-42.489626c0-12.746888 8.497925-21.244813 21.244813-21.244814s21.244813 8.497925 21.244813 21.244814v42.489626c0 12.746888-12.746888 21.244813-21.244813 21.244813zM356.912863 875.286307c-12.746888 0-21.244813-8.497925-21.244813-21.244813v-50.987552c0-12.746888 8.497925-21.244813 21.244813-21.244813s21.244813 8.497925 21.244813 21.244813v50.987552c0 12.746888-12.746888 21.244813-21.244813 21.244813zM399.40249 1024h-42.489627c-12.746888 0-21.244813-8.497925-21.244813-21.244813v-42.489627c0-12.746888 8.497925-21.244813 21.244813-21.244813s21.244813 8.497925 21.244813 21.244813v21.244813h21.244814c12.746888 0 21.244813 8.497925 21.244813 21.244814s-12.746888 21.244813-21.244813 21.244813zM820.049793 1024h-72.232366c-12.746888 0-21.244813-8.497925-21.244813-21.244813s8.497925-21.244813 21.244813-21.244814h72.232366c12.746888 0 21.244813 8.497925 21.244813 21.244814s-8.497925 21.244813-21.244813 21.244813z m-212.448133 0h-72.232365c-12.746888 0-21.244813-8.497925-21.244814-21.244813s8.497925-21.244813 21.244814-21.244814h72.232365c12.746888 0 21.244813 8.497925 21.244813 21.244814s-8.497925 21.244813-21.244813 21.244813zM1002.755187 1024h-42.489627c-12.746888 0-21.244813-8.497925-21.244813-21.244813s8.497925-21.244813 21.244813-21.244814h21.244813v-21.244813c0-12.746888 8.497925-21.244813 21.244814-21.244813s21.244813 8.497925 21.244813 21.244813v42.489627c0 8.497925-8.497925 21.244813-21.244813 21.244813zM1002.755187 841.294606c-12.746888 0-21.244813-8.497925-21.244814-21.244813v-72.232366c0-12.746888 8.497925-21.244813 21.244814-21.244813s21.244813 8.497925 21.244813 21.244813v72.232366c0 8.497925-8.497925 21.244813-21.244813 21.244813z m0-212.448133c-12.746888 0-21.244813-8.497925-21.244814-21.244813v-72.232365c0-12.746888 8.497925-21.244813 21.244814-21.244814s21.244813 8.497925 21.244813 21.244814v72.232365c0 12.746888-8.497925 21.244813-21.244813 21.244813zM1002.755187 416.39834c-12.746888 0-21.244813-8.497925-21.244814-21.244813v-21.244813h-21.244813c-12.746888 0-21.244813-8.497925-21.244813-21.244814s8.497925-21.244813 21.244813-21.244813h42.489627c12.746888 0 21.244813 8.497925 21.244813 21.244813v42.489627c0 12.746888-8.497925 21.244813-21.244813 21.244813zM858.290456 373.908714H807.302905c-12.746888 0-21.244813-8.497925-21.244814-21.244814s8.497925-21.244813 21.244814-21.244813h50.987551c12.746888 0 21.244813 8.497925 21.244814 21.244813s-8.497925 21.244813-21.244814 21.244814zM701.078838 373.908714h-42.489626c-12.746888 0-21.244813-8.497925-21.244814-21.244814s8.497925-21.244813 21.244814-21.244813h42.489626c12.746888 0 21.244813 8.497925 21.244813 21.244813s-8.497925 21.244813-21.244813 21.244814z" p-id="111731"></path><path d="M658.589212 679.834025H356.912863c-12.746888 0-21.244813-8.497925-21.244813-21.244813V352.6639c0-12.746888 8.497925-21.244813 21.244813-21.244813h305.925311c8.497925 0 16.995851 8.497925 16.995851 21.244813v305.925312c0 12.746888-8.497925 21.244813-21.244813 21.244813z m-280.431536-42.489627H637.344398V373.908714H378.157676V637.344398z" p-id="111732"></path></svg>