<?xml version="1.0" standalone="no"?><!DOCTYPE svg PUBLIC "-//W3C//DTD SVG 1.1//EN" "http://www.w3.org/Graphics/SVG/1.1/DTD/svg11.dtd"><svg t="1727184275192" class="icon" viewBox="0 0 1028 1024" version="1.1" xmlns="http://www.w3.org/2000/svg" p-id="69690" xmlns:xlink="http://www.w3.org/1999/xlink" width="200.78125" height="200"><path d="M1002.755187 1024H356.912863c-12.746888 0-21.244813-8.497925-21.244813-21.244813V679.834025H21.244813c-8.497925 0-21.244813-8.497925-21.244813-21.244813V21.244813C0 8.497925 12.746888 0 21.244813 0h637.344399c12.746888 0 21.244813 8.497925 21.244813 21.244813v310.174274h322.921162c12.746888 0 21.244813 8.497925 21.244813 21.244813v645.842324c0 12.746888-8.497925 25.493776-21.244813 25.493776z m-624.597511-42.489627h603.352697V373.908714h-322.921161c-12.746888 0-21.244813-8.497925-21.244814-21.244814V42.489627H42.489627v594.854771h310.174273c12.746888 0 21.244813 8.497925 21.244814 21.244814 4.248963 0 4.248963 322.921162 4.248962 322.921161z" p-id="69691"></path></svg>