<?xml version="1.0" standalone="no"?><!DOCTYPE svg PUBLIC "-//W3C//DTD SVG 1.1//EN" "http://www.w3.org/Graphics/SVG/1.1/DTD/svg11.dtd"><svg t="1719804997600" class="icon" viewBox="0 0 1024 1024" version="1.1" xmlns="http://www.w3.org/2000/svg" p-id="171140" xmlns:xlink="http://www.w3.org/1999/xlink" width="200" height="200"><path d="M384 373.333333a10.666667 10.666667 0 0 0-10.666667 10.666667v490.666667c0 5.888 4.778667 10.666667 10.666667 10.666666h490.666667a10.666667 10.666667 0 0 0 10.666666-10.666666V384a10.666667 10.666667 0 0 0-10.666666-10.666667H384zM309.333333 384c0-41.216 33.450667-74.666667 74.666667-74.666667h490.666667c41.216 0 74.666667 33.450667 74.666666 74.666667v490.666667a74.666667 74.666667 0 0 1-74.666666 74.666666H384a74.666667 74.666667 0 0 1-74.666667-74.666666V384z" p-id="171141"></path><path d="M149.333333 138.666667a10.666667 10.666667 0 0 0-10.666666 10.666666V640c0 5.888 4.778667 10.666667 10.666666 10.666667H341.333333a32 32 0 0 1 0 64H149.333333A74.666667 74.666667 0 0 1 74.666667 640V149.333333c0-41.216 33.450667-74.666667 74.666666-74.666666H640c41.216 0 74.666667 33.450667 74.666667 74.666666V341.333333a32 32 0 0 1-64 0V149.333333a10.666667 10.666667 0 0 0-10.666667-10.666666H149.333333z" p-id="171142"></path><path d="M640.426667 317.866667a32 32 0 0 1 1.706666 45.226666l-277.333333 298.666667a32 32 0 1 1-46.933333-43.52l277.333333-298.666667a32 32 0 0 1 45.226667-1.706666zM832.298667 317.738667a32 32 0 0 1 1.962666 45.226666l-469.333333 512a32 32 0 0 1-47.189333-43.264l469.333333-512a32 32 0 0 1 45.226667-1.962666zM938.88 424.32a32 32 0 0 1 2.133333 45.226667l-426.666666 469.333333a32 32 0 0 1-47.36-43.093333l426.666666-469.333334a32 32 0 0 1 45.226667-2.133333zM938.88 658.986667a32 32 0 0 1 2.133333 45.226666l-213.333333 234.666667a32 32 0 0 1-47.36-43.093333l213.333333-234.666667a32 32 0 0 1 45.226667-2.133333z" p-id="171143"></path></svg>