<?xml version="1.0" standalone="no"?><!DOCTYPE svg PUBLIC "-//W3C//DTD SVG 1.1//EN" "http://www.w3.org/Graphics/SVG/1.1/DTD/svg11.dtd"><svg t="1764575917574" class="icon" viewBox="0 0 1222 1024" version="1.1" xmlns="http://www.w3.org/2000/svg" xmlns:xlink="http://www.w3.org/1999/xlink" width="238.671875" height="200"><path d="M82.580632 82.580797h359.787297l45.881799 140.469655H990.967582v131.699591H184.997131c-36.731865 0-68.789666 24.691609-77.807471 59.804894L82.580632 512.000083V82.580797z m0 759.741813l101.871467-412.903159H1057.032088l-32.569802 132.013398a225.114802 225.114802 0 0 1 78.451601 30.769543l34.303994-137.083849c11.792514-47.384767-21.470964-93.62992-68.872247-98.865532v-133.863204c0-44.263219-35.839994-80.070181-80.136245-80.070181H544.189848l-27.829673-86.610567A79.938052 79.938052 0 0 0 440.022639 0.000165H80.136245A80.037148 80.037148 0 0 0 0 80.05383v765.357296c0 3.88129 0.330323 7.779096 0.891871 11.561288 0 0.099097 0 0.330323 0.115613 0.445935 0.21471 1.10658 0.330323 2.213161 0.545032 3.319742 0.115613 0.346839 0.115613 0.677161 0.231226 0.891871l0.660645 2.774709c0.115613 0.561548 0.330323 1.123097 0.445935 1.668129l0.330323 1.354322c0.346839 1.205677 0.677161 2.328774 1.123096 3.435354v0.115613a78.914052 78.914052 0 0 0 20.034062 31.347608l0.214709 0.231226c0.891871 0.776258 1.668129 1.552516 2.56 2.328774a13.85703 13.85703 0 0 1 1.222193 1.10658c0.445935 0.330323 0.776258 0.677161 1.222193 1.007484 0.677161 0.561548 1.453419 1.10658 2.229678 1.783741 0.21471 0.099097 0.445935 0.330323 0.660645 0.445936 0.891871 0.660645 1.899355 1.32129 2.791225 1.998451 0.115613 0 0.115613 0.115613 0.21471 0.115613a78.947084 78.947084 0 0 0 36.170316 13.113804c0.231226 0 0.330323 0 0.561549 0.115613 1.222193 0.099097 2.34529 0.21471 3.550967 0.21471h0.677161c1.222193 0 2.444387 0.115613 3.683096 0.115613h724.413819a226.221383 226.221383 0 0 1-41.191219-82.580632H82.580632z" fill="black"></path><path d="M1127.209109 845.493706a156.242555 156.242555 0 0 1-33.64335 49.862186h-0.016516a155.862685 155.862685 0 0 1-49.878702 33.626833 158.059329 158.059329 0 0 1-121.938561 0.033032c-2.923354-1.238709-5.71458-2.708645-8.538837-4.129031a156.209523 156.209523 0 0 1-74.950181-79.359988c-0.429419-1.040516-0.743226-2.147096-1.172645-3.204128a155.747072 155.747072 0 0 1-11.13187-57.806442 155.813136 155.813136 0 0 1 45.881799-110.839724 155.895717 155.895717 0 0 1 49.862186-33.610318 155.631459 155.631459 0 0 1 61.027087-12.32103c8.423224 0 16.697804 0.825806 24.85677 2.13058a154.673523 154.673523 0 0 1 36.120768 10.140902 156.589394 156.589394 0 0 1 40.893929 25.484383c3.055483 2.609548 6.094451 5.252128 8.968257 8.125934a156.209523 156.209523 0 0 1 45.931347 110.889273c0 21.19019-4.129032 41.703219-12.271481 60.977538m-24.295222-253.291314a225.742415 225.742415 0 0 0-78.451601-30.769543 227.493125 227.493125 0 0 0-41.752767-4.013419c-125.22527 0-227.096738 101.887984-227.096738 227.096738 0 20.017545 2.85729 39.308381 7.746064 57.806442a226.221383 226.221383 0 0 0 41.191219 82.580632c41.620638 52.719475 105.934435 86.709663 178.159455 86.709663 125.22527 0 227.096738-101.871467 227.096737-227.096737 0-81.044632-42.826316-152.113524-106.892369-192.313776" fill="black"></path><path d="M1070.294537 821.016807l-36.484123-36.500639 36.500639-36.50064a36.170317 36.170317 0 0 0 0-51.084378 36.170317 36.170317 0 0 0-51.117411 0l-36.484123 36.500639-36.500639-36.500639a36.170317 36.170317 0 0 0-51.084379 0 36.170317 36.170317 0 0 0 0 51.084378l36.500639 36.50064-36.500639 36.500639a36.170317 36.170317 0 0 0 0 51.084379 36.170317 36.170317 0 0 0 51.084379 0l36.500639-36.500639 36.500639 36.500639a36.170317 36.170317 0 0 0 51.084379 0 36.170317 36.170317 0 0 0 0-51.084379" fill="black"></path></svg>