<?xml version="1.0" standalone="no"?><!DOCTYPE svg PUBLIC "-//W3C//DTD SVG 1.1//EN" "http://www.w3.org/Graphics/SVG/1.1/DTD/svg11.dtd"><svg t="1719756593030" class="icon" viewBox="0 0 1024 1024" version="1.1" xmlns="http://www.w3.org/2000/svg" p-id="27338" xmlns:xlink="http://www.w3.org/1999/xlink" width="200" height="200"><path d="M241.091 54c17.673 0 32 14.327 32 32v45.542h207.411V86c0-17.496 14.042-31.713 31.471-31.996l0.53-0.004h155.09c17.673 0 32 14.327 32 32v155.091c0 17.673-14.327 32-32 32h-45.54v129.858h129.855v-45.542c0-17.497 14.043-31.713 31.472-31.996l0.529-0.004H939c17.673 0 32 14.327 32 32v155.09c0 17.674-14.327 32-32 32h-45.549v207.411H939c17.496 0 31.713 14.043 31.996 31.472l0.004 0.529V939c0 17.673-14.327 32-32 32H783.909c-17.673 0-32-14.327-32-32l-0.001-45.539H544.497V939c0 17.496-14.04 31.713-31.47 31.996l-0.53 0.004h-155.09c-17.673 0-32-14.327-32-32V783.909c0-17.673 14.327-32 32-32l45.593-0.001V622.053H273.091v45.54c0 17.497-14.042 31.713-31.47 31.996l-0.53 0.004H86c-17.673 0-32-14.327-32-32v-155.09c0-17.674 14.327-32 32-32l45.553-0.001V273.091H86c-17.496 0-31.713-14.042-31.996-31.47l-0.004-0.53V86c0-17.673 14.327-32 32-32z m619.792 761.908h-44.975v44.98a32.636 32.636 0 0 1 0 1.142v44.969H907v-91.091h-44.975a32.636 32.636 0 0 1-1.142 0z m-380.386 0h-42.628a44.664 44.664 0 0 1-5.732 0h-42.731v91.091h91.091v-91.091z m271.411-348.959H622.053v123.104c0 17.496-14.042 31.713-31.47 31.996l-0.53 0.004H467v129.855h45.498c17.496 0 31.713 14.043 31.996 31.472l0.004 0.529-0.001 45.552h207.411v-45.552c0-17.496 14.043-31.713 31.472-31.996l0.529-0.004 45.542-0.001V544.497h-45.542c-17.496 0-31.713-14.04-31.996-31.47l-0.004-0.53-0.001-45.548z m-542.817 77.553H118v91.091h91.091v-91.091z m271.411-348.96H273.091v45.55c0 17.495-14.042 31.712-31.47 31.995l-0.53 0.004h-45.538v207.411h45.538c17.496 0 31.713 14.042 31.996 31.471l0.004 0.53v45.55h284.962V273.091h-45.55c-17.497 0-31.714-14.042-31.997-31.47l-0.004-0.53v-45.549zM907 389.406h-91.092v91.091H907v-91.091zM209.091 118H118v91.091l45.13-0.001 0.423-0.003 0.419 0.003 45.119 0.001V118z m426.502 0h-91.091v44.973a32.636 32.636 0 0 1 0 1.134v44.984h91.091V118z" p-id="27339"></path></svg>