<?xml version="1.0" standalone="no"?><!DOCTYPE svg PUBLIC "-//W3C//DTD SVG 1.1//EN" "http://www.w3.org/Graphics/SVG/1.1/DTD/svg11.dtd"><svg t="1719804761414" class="icon" viewBox="0 0 1024 1024" version="1.1" xmlns="http://www.w3.org/2000/svg" p-id="168147" xmlns:xlink="http://www.w3.org/1999/xlink" width="200" height="200"><path d="M650.666667 341.333333a32 32 0 0 1 32-32h192c41.216 0 74.666667 33.408 74.666666 74.666667v490.666667a74.666667 74.666667 0 0 1-74.666666 74.666666H384a74.666667 74.666667 0 0 1-74.666667-74.666666V682.666667a32 32 0 0 1 64 0v192c0 5.888 4.778667 10.666667 10.666667 10.666666h490.666667a10.666667 10.666667 0 0 0 10.666666-10.666666V384a10.666667 10.666667 0 0 0-10.666666-10.666667H682.666667a32 32 0 0 1-32-32z" p-id="168148"></path><path d="M74.666667 149.333333c0-41.216 33.450667-74.666667 74.666666-74.666666H640c41.216 0 74.666667 33.450667 74.666667 74.666666V341.333333a32 32 0 0 1-64 0V149.333333a10.666667 10.666667 0 0 0-10.666667-10.666666H149.333333a10.666667 10.666667 0 0 0-10.666666 10.666666V640c0 5.888 4.778667 10.666667 10.666666 10.666667H341.333333a32 32 0 0 1 0 64H149.333333A74.666667 74.666667 0 0 1 74.666667 640V149.333333zM897.28 318.72a32 32 0 0 1 0 45.226667l-512 512a32 32 0 0 1-45.226667-45.226667l512-512a32 32 0 0 1 45.226667 0z" p-id="168149"></path><path d="M705.28 126.72a32 32 0 0 1 0 45.226667l-533.333333 533.333333a32 32 0 0 1-45.226667-45.226667l533.333333-533.333333a32 32 0 0 1 45.226667 0zM705.28 318.72a32 32 0 0 1 0 45.226667l-341.333333 341.333333a32 32 0 0 1-45.226667-45.226667l341.333333-341.333333a32 32 0 0 1 45.226667 0zM939.946667 489.386667a32 32 0 0 1 0 45.226666l-405.333334 405.333334a32 32 0 1 1-45.226666-45.226667l405.333333-405.333333a32 32 0 0 1 45.226667 0zM534.613333 84.053333a32 32 0 0 1 0 45.226667l-405.333333 405.333333a32 32 0 0 1-45.226667-45.226666l405.333334-405.333334a32 32 0 0 1 45.226666 0zM939.946667 702.72a32 32 0 0 1 0 45.226667l-192 192a32 32 0 1 1-45.226667-45.226667l192-192a32 32 0 0 1 45.226667 0zM321.28 84.053333a32 32 0 0 1 0 45.226667l-192 192a32 32 0 0 1-45.226667-45.226667l192-192a32 32 0 0 1 45.226667 0z" p-id="168150"></path></svg>