<?xml version="1.0" standalone="no"?><!DOCTYPE svg PUBLIC "-//W3C//DTD SVG 1.1//EN" "http://www.w3.org/Graphics/SVG/1.1/DTD/svg11.dtd"><svg t="1760263133947" class="icon" viewBox="0 0 1179 1024" version="1.1" xmlns="http://www.w3.org/2000/svg" p-id="11882" xmlns:xlink="http://www.w3.org/1999/xlink" width="230.2734375" height="200"><path d="M1176.513939 899.878788v98.428121H0V899.878788h1176.482909z m-1078.30303 93.090909H0.99297V0.620606h97.217939V992.969697zM279.272727 548.212364a112.298667 112.298667 0 1 0 224.597334 0 112.298667 112.298667 0 0 0-224.597334 0zM616.168727 674.536727a70.190545 70.190545 0 1 0 140.381091 0 70.190545 70.190545 0 0 0-140.381091 0zM503.870061 337.640727a182.489212 182.489212 0 1 0 364.978424 0 182.489212 182.489212 0 0 0-364.978424 0z" fill="#000000" p-id="11883"></path></svg>