<?xml version="1.0" standalone="no"?><!DOCTYPE svg PUBLIC "-//W3C//DTD SVG 1.1//EN" "http://www.w3.org/Graphics/SVG/1.1/DTD/svg11.dtd"><svg t="1759980887927" class="icon" viewBox="0 0 1024 1024" version="1.1" xmlns="http://www.w3.org/2000/svg" p-id="37668" xmlns:xlink="http://www.w3.org/1999/xlink" width="200" height="200"><path d="M975.826297 927.652593H96.347407V48.173703A48.173703 48.173703 0 0 0 48.173703 0 48.173703 48.173703 0 0 0 0 48.173703v927.652594a48.173703 48.173703 0 0 0 48.173703 48.173703h927.652594a48.173703 48.173703 0 0 0 48.173703-48.173703 48.173703 48.173703 0 0 0-48.173703-48.173704z" p-id="37669"></path><path d="M353.113245 118.420844a28.595416 28.595416 0 1 0-57.190832 0v235.927624h-55.140362v316.587696h55.140362v80.672425a28.595416 28.595416 0 1 0 57.190832 0v-80.697129h55.152714v-316.587696h-55.152714zM827.970084 64.293366a28.595416 28.595416 0 1 0-57.190832 0v186.889264h-55.140362v369.677587H770.779252V701.606755a28.595416 28.595416 0 1 0 57.190832 0v-80.746538H883.18456V251.18263h-55.214476zM592.178335 327.766466a28.595416 28.595416 0 0 0-57.190832 0v80.684776h-55.140362V565.732207h55.140362v261.397926a28.595416 28.595416 0 0 0 57.190832 0V565.732207h55.152714V408.451242h-55.152714z" p-id="37670"></path></svg>