<?xml version="1.0" standalone="no"?><!DOCTYPE svg PUBLIC "-//W3C//DTD SVG 1.1//EN" "http://www.w3.org/Graphics/SVG/1.1/DTD/svg11.dtd"><svg t="1759981102022" class="icon" viewBox="0 0 1024 1024" version="1.1" xmlns="http://www.w3.org/2000/svg" p-id="41159" xmlns:xlink="http://www.w3.org/1999/xlink" width="200" height="200"><path d="M456 216m32 0l104 0q32 0 32 32l0 456q0 32-32 32l-104 0q-32 0-32-32l0-456q0-32 32-32Z" fill="#2c2c2c" p-id="41160"></path><path d="M696 384m32 0l104 0q32 0 32 32l0 288q0 32-32 32l-104 0q-32 0-32-32l0-288q0-32 32-32Z" fill="#2c2c2c" p-id="41161"></path><path d="M216 568m32 0l104 0q32 0 32 32l0 104q0 32-32 32l-104 0q-32 0-32-32l0-104q0-32 32-32Z" fill="#2c2c2c" p-id="41162"></path><path d="M64 792m36 0l824 0q36 0 36 36l0 0q0 36-36 36l-824 0q-36 0-36-36l0 0q0-36 36-36Z" fill="#2c2c2c" p-id="41163"></path><path d="M64 160m36 0l0 0q36 0 36 36l0 632q0 36-36 36l0 0q-36 0-36-36l0-632q0-36 36-36Z" fill="#2c2c2c" p-id="41164"></path><path d="M63.999935 575.000085m31.176915-18l214.7743-124q31.176915-18 49.176915 13.176915l0 0q18 31.176915-13.176915 49.176915l-214.7743 124q-31.176915 18-49.176915-13.176915l0 0q-18-31.176915 13.176915-49.176915Z" fill="#2c2c2c" p-id="41165"></path><path d="M314.999935 415.000085m31.176915 18l214.7743 124q31.176915 18 13.176915 49.176915l0 0q-18 31.176915-49.176915 13.176915l-214.7743-124q-31.176915-18-13.176915-49.176915l0 0q18-31.176915 49.176915-13.176915Z" fill="#2c2c2c" p-id="41166"></path><path d="M492.998968 579.436663m29.489473-20.648751l347.320467-243.196409q29.489474-20.648752 50.138225 8.840722l0 0q20.648752 29.489474-8.840721 50.138225l-347.320467 243.196409q-29.489474 20.648752-50.138226-8.840722l0 0q-20.648752-29.489474 8.840722-50.138225Z" fill="#2c2c2c" p-id="41167"></path></svg>