<?xml version="1.0" standalone="no"?><!DOCTYPE svg PUBLIC "-//W3C//DTD SVG 1.1//EN" "http://www.w3.org/Graphics/SVG/1.1/DTD/svg11.dtd"><svg t="1759981199870" class="icon" viewBox="0 0 1024 1024" version="1.1" xmlns="http://www.w3.org/2000/svg" p-id="45637" xmlns:xlink="http://www.w3.org/1999/xlink" width="200" height="200"><path d="M415.744 688.128C438.955 649.899 512 552.96 634.88 397.312c122.88-155.648 189.099-230.741 198.656-225.28 8.192 4.096-24.576 98.987-98.304 284.672C661.504 642.389 614.4 753.664 593.92 790.528c-34.133 58.709-80.555 70.997-139.264 36.864s-71.68-80.555-38.912-139.264M512 299.008c-114.688 0-211.627 43.349-290.816 130.048C141.995 515.755 102.4 621.909 102.4 747.52c0 20.48 0.683 36.181 2.048 47.104 1.365 15.019-2.731 27.648-12.288 37.888-9.557 10.24-21.163 16.043-34.816 17.408-13.653 1.365-25.941-2.731-36.864-12.288-10.923-9.557-17.067-21.163-18.432-34.816 0-5.461-0.341-14.336-1.024-26.624C0.341 763.904 0 754.347 0 747.52c0-154.283 49.493-284.672 148.48-391.168C247.467 249.856 368.64 196.608 512 196.608c49.152 0 94.891 6.144 137.216 18.432l-71.68 88.064c-27.307-2.731-49.152-4.096-65.536-4.096m370.688 63.488C976.896 467.627 1024 595.968 1024 747.52c0 25.941-0.683 45.056-2.048 57.344-1.365 13.653-6.827 24.917-16.384 33.792s-21.163 13.312-34.816 13.312h-4.096c-15.019-2.731-26.965-9.557-35.84-20.48-8.875-10.923-12.629-23.211-11.264-36.864 1.365-9.557 2.048-25.259 2.048-47.104 0-102.4-27.307-193.877-81.92-274.432 4.096-9.557 10.923-26.965 20.48-52.224 9.557-25.259 17.067-44.715 22.528-58.368" p-id="45638" fill="#2c2c2c"></path></svg>