<?xml version="1.0" standalone="no"?><!DOCTYPE svg PUBLIC "-//W3C//DTD SVG 1.1//EN" "http://www.w3.org/Graphics/SVG/1.1/DTD/svg11.dtd"><svg t="1759980107578" class="icon" viewBox="0 0 1024 1024" version="1.1" xmlns="http://www.w3.org/2000/svg" p-id="2416" xmlns:xlink="http://www.w3.org/1999/xlink" width="200" height="200"><path d="M80 1024H20c-11 0-20-9-20-20V203c0-11 9-20 20-20h60c11 0 20 9 20 20v801c0 11-9 20-20 20zM300 911.5H194c-11 0-20-9-20-20v-337c0-11 9-20 20-20h106c11 0 20 9 20 20v337c0 11-9 20-20 20zM901 911.5H795c-11 0-20-9-20-20V483.9c0-11 9-20 20-20h106c11 0 20 9 20 20v407.6c0 11-9 20-20 20zM500.3 911.5h-106c-11 0-20-9-20-20V359.9c0-11 9-20 20-20h106c11 0 20 9 20 20v531.6c0 11-8.9 20-20 20zM700.7 911.5h-106c-11 0-20-9-20-20V213.7c0-11 9-20 20-20h106c11 0 20 9 20 20v677.8c0 11-9 20-20 20z" p-id="2417"></path><path d="M0 1004v-60c0-11 9-20 20-20h984c11 0 20 9 20 20v60c0 11-9 20-20 20H20c-11 0-20-9-20-20z" p-id="2418"></path></svg>