<?xml version="1.0" standalone="no"?><!DOCTYPE svg PUBLIC "-//W3C//DTD SVG 1.1//EN" "http://www.w3.org/Graphics/SVG/1.1/DTD/svg11.dtd"><svg t="1759980495815" class="icon" viewBox="0 0 1024 1024" version="1.1" xmlns="http://www.w3.org/2000/svg" p-id="21855" xmlns:xlink="http://www.w3.org/1999/xlink" width="200" height="200"><path d="M0 0h75.682034v1024H0z" fill="#040000" p-id="21856"></path><path d="M1024 948.317966v75.682034H0v-75.682034z" fill="#040000" p-id="21857"></path><path d="M269.840133 745.216142m-96.229962 0a96.229961 96.229961 0 1 0 192.459923 0 96.229961 96.229961 0 1 0-192.459923 0Z" fill="#040000" p-id="21858"></path><path d="M491.961526 419.44942m-96.229962 0a96.229961 96.229961 0 1 0 192.459923 0 96.229961 96.229961 0 1 0-192.459923 0Z" fill="#040000" p-id="21859"></path><path d="M735.366722 572.907905m-96.229961 0a96.229961 96.229961 0 1 0 192.459922 0 96.229961 96.229961 0 1 0-192.459922 0Z" fill="#040000" p-id="21860"></path><path d="M927.770039 197.441238m-96.229962 0a96.229961 96.229961 0 1 0 192.459923 0 96.229961 96.229961 0 1 0-192.459923 0Z" fill="#040000" p-id="21861"></path><path d="M279.434826 689.883914l175.62534-239.171078 27.238739 20.004511-175.625339 239.171078zM748.012471 506.10733l148.363958-256.973621 29.265229 16.896849-148.363958 256.973621zM496.223947 379.372471l239.176738 175.62534-20.00451 27.23874L476.225097 406.611211z" fill="#040000" p-id="21862"></path></svg>