<?xml version="1.0" standalone="no"?><!DOCTYPE svg PUBLIC "-//W3C//DTD SVG 1.1//EN" "http://www.w3.org/Graphics/SVG/1.1/DTD/svg11.dtd"><svg t="1759980996112" class="icon" viewBox="0 0 1024 1024" version="1.1" xmlns="http://www.w3.org/2000/svg" p-id="40121" xmlns:xlink="http://www.w3.org/1999/xlink" width="200" height="200"><path d="M73.142857 29.257143a43.885714 43.885714 0 0 1 43.885714 43.885714v833.828572H950.857143a43.885714 43.885714 0 1 1 0 87.771428H109.714286a80.457143 80.457143 0 0 1-80.457143-80.457143V73.142857A43.885714 43.885714 0 0 1 73.142857 29.257143zM365.714286 658.285714a73.142857 73.142857 0 1 1-146.285715 0 73.142857 73.142857 0 0 1 146.285715 0z m146.285714-73.142857a73.142857 73.142857 0 1 0 0-146.285714 73.142857 73.142857 0 0 0 0 146.285714z m292.571429 146.285714a73.142857 73.142857 0 1 1-146.285715 0 73.142857 73.142857 0 0 1 146.285715 0z m73.142857-292.571428a73.142857 73.142857 0 1 0 0-146.285714 73.142857 73.142857 0 0 0 0 146.285714z" fill="#401D5B" p-id="40122"></path></svg>