<?xml version="1.0" standalone="no"?><!DOCTYPE svg PUBLIC "-//W3C//DTD SVG 1.1//EN" "http://www.w3.org/Graphics/SVG/1.1/DTD/svg11.dtd"><svg t="1759980811838" class="icon" viewBox="0 0 1024 1024" version="1.1" xmlns="http://www.w3.org/2000/svg" p-id="36684" xmlns:xlink="http://www.w3.org/1999/xlink" width="200" height="200"><path d="M34.742888 1023.999927a34.933022 34.933022 0 0 1-24.579653-10.027884A34.011422 34.011422 0 0 1 0.000037 989.714219V34.285818a34.011422 34.011422 0 0 1 10.163198-24.257824A34.933022 34.933022 0 0 1 34.742888 0.00011a34.933022 34.933022 0 0 1 24.579652 10.027884A34.011422 34.011422 0 0 1 69.485738 34.285818v955.428401c0 18.973254-15.630626 34.285708-34.74285 34.285708z" fill="#3F3F3F" p-id="36685"></path><path d="M989.714146 1023.999927H34.285745A34.24548 34.24548 0 0 1 0.000037 989.72519a34.21988 34.21988 0 0 1 34.285708-34.274737h955.428401a34.24548 34.24548 0 0 1 34.285708 34.274737c0 18.965939-15.425826 34.274737-34.285708 34.274737z m-331.911255-652.851084l-157.769115 119.873808a3.693714 3.693714 0 0 1-0.650971 0.402285c-5.039542 2.439314-10.075427 4.725028-15.114969 0.149943a3.492571 3.492571 0 0 0-0.724114-0.519314L310.045238 401.810324c-5.269942-2.549028-13.176683-2.549028-15.809825 2.559999L126.862642 551.497154a3.594971 3.594971 0 0 0-1.239771 2.706285v156.34283c0 3.152457 3.847314 4.827428 6.275656 2.728228l162.333228-140.24409c5.269942-5.112685 10.539884-5.112685 15.809826-2.556342l200.224879 104.777124c5.269942 2.552685 10.53257 2.552685 13.169369 0l163.346256-99.664439s2.629485-2.56 5.262628-2.56l326.458456-78.529814c1.682285-0.402286 2.863542-1.865143 2.863542-3.547428V288.914344c0-2.369828-2.289371-4.114285-4.662856-3.547428l-345.695024 81.967528-7.475199 1.411657c-3.821714 0.548571-5.730742 2.402742-5.730741 2.402742z" fill="#3F3F3F" p-id="36686"></path><path d="M689.338428 633.172111c-2.402742 0-4.754285 0.669257-6.776685 1.930971l-157.6594 98.00044c-5.269942 2.56-10.53257 2.56-13.173026 0l-202.916536-105.055067c-5.098056-2.479542-12.668341-2.56-15.53554 2.077256a3.510857 3.510857 0 0 1-0.683885 0.841143C283.432215 638.902853 124.342872 776.740542 124.342872 779.227399v116.765236c0 2.0224 1.685943 3.664456 3.770513 3.664457H1016.575855c2.080914 0 3.770514-1.642057 3.770514-3.664457v-340.095939c0-2.391771-2.318628-4.147199-4.703085-3.551085l-323.174343 80.4425c-1.024 0.256-2.0736 0.384-3.126856 0.384z" fill="#3F3F3F" p-id="36687"></path></svg>