<?xml version="1.0" standalone="no"?><!DOCTYPE svg PUBLIC "-//W3C//DTD SVG 1.1//EN" "http://www.w3.org/Graphics/SVG/1.1/DTD/svg11.dtd"><svg t="1729050634043" class="icon" viewBox="0 0 1024 1024" version="1.1" xmlns="http://www.w3.org/2000/svg" p-id="4047" xmlns:xlink="http://www.w3.org/1999/xlink" width="200" height="200"><path d="M0 0h1024v1024H0z" fill="#FFFFFF" p-id="4048"></path><path d="M384 768a32 32 0 1 0 0 64v-64z m544 64a32 32 0 1 0 0-64v64zM384 480a32 32 0 1 0 0 64v-64z m544 64a32 32 0 1 0 0-64v64zM384 192a32 32 0 1 0 0 64V192z m544 64a32 32 0 1 0 0-64v64zM192 224a32 32 0 0 1-32 32v64a96 96 0 0 0 96-96H192zM160 256a32 32 0 0 1-32-32H64a96 96 0 0 0 96 96V256zM128 224a32 32 0 0 1 32-32V128a96 96 0 0 0-96 96h64z m32-32a32 32 0 0 1 32 32h64a96 96 0 0 0-96-96v64z m32 320a32 32 0 0 1-32 32v64a96 96 0 0 0 96-96H192z m-32 32a32 32 0 0 1-32-32H64a96 96 0 0 0 96 96v-64z m-32-32a32 32 0 0 1 32-32v-64a96 96 0 0 0-96 96h64z m32-32a32 32 0 0 1 32 32h64a96 96 0 0 0-96-96v64z m32 320a32 32 0 0 1-32 32v64a96 96 0 0 0 96-96H192z m-32 32a32 32 0 0 1-32-32H64a96 96 0 0 0 96 96v-64z m-32-32a32 32 0 0 1 32-32v-64a96 96 0 0 0-96 96h64z m32-32a32 32 0 0 1 32 32h64a96 96 0 0 0-96-96v64z m224 64h544v-64H384v64z m0-288h544v-64H384v64z m0-288h544V192H384v64z" fill="#000000" p-id="4049"></path></svg>