<?xml version="1.0" standalone="no"?><!DOCTYPE svg PUBLIC "-//W3C//DTD SVG 1.1//EN" "http://www.w3.org/Graphics/SVG/1.1/DTD/svg11.dtd"><svg t="1729221085539" class="icon" viewBox="0 0 1024 1024" version="1.1" xmlns="http://www.w3.org/2000/svg" p-id="22986" xmlns:xlink="http://www.w3.org/1999/xlink" width="200" height="200"><path d="M896 288a64 64 0 0 1 64 64v320a64 64 0 0 1-64 64H128a64 64 0 0 1-64-64V352a64 64 0 0 1 64-64h768z m0 44.8H128a19.2 19.2 0 0 0-18.944 16.096L108.8 352v320a19.2 19.2 0 0 0 16.096 18.944L128 691.2h768a19.2 19.2 0 0 0 18.944-16.096L915.2 672V352a19.2 19.2 0 0 0-16.096-18.944L896 332.8z" fill="#2684FC" p-id="22987"></path><path d="M800.96 469.696a25.6 25.6 0 0 1 37.824 34.272l-2.56 2.816-62.88 59.904a32 32 0 0 1-40.32 3.072l-3.232-2.56-66.112-60a25.6 25.6 0 0 1 31.68-40.064l2.752 2.144 52.864 48 49.952-47.584z" fill="#9BC5FB" p-id="22988"></path><path d="M288.032 464a48 48 0 0 1 4.64 95.776L288 560h-76.8a48 48 0 0 1-4.608-95.776L211.2 464h76.8zM512.032 464a48 48 0 0 1 4.64 95.776L512 560h-76.8a48 48 0 0 1-4.608-95.776l4.608-0.224h76.8z" fill="#2684FC" p-id="22989"></path></svg>