<?xml version="1.0" standalone="no"?><!DOCTYPE svg PUBLIC "-//W3C//DTD SVG 1.1//EN" "http://www.w3.org/Graphics/SVG/1.1/DTD/svg11.dtd"><svg t="1729220718118" class="icon" viewBox="0 0 1024 1024" version="1.1" xmlns="http://www.w3.org/2000/svg" p-id="5806" xmlns:xlink="http://www.w3.org/1999/xlink" width="200" height="200"><path d="M903.52 115.1c0-21.06-8.2-40.86-23.1-55.76-14.88-14.9-34.68-23.1-55.74-23.1-21.08 0-40.88 8.2-55.76 23.1l-74.62 74.6c-11.78-8.8-26.04-13.58-41.02-13.58-18.36 0-35.62 7.16-48.62 20.14l-40.84 40.86a9.97 9.97 0 0 0 0 14.14l32.76 32.78-349.76 349.74c-17.28 17.28-19.4 44.06-6.36 63.68l-37.3 37.3a10.006 10.006 0 0 0 0 14.14l43.48 43.48c1.86 1.88 4.4 2.92 7.06 2.92 2.66 0 5.2-1.04 7.08-2.92l37.3-37.3c8.42 5.6 18.18 8.4 27.94 8.4 12.94 0 25.88-4.92 35.72-14.76l19.74-19.74 110.58-110.58 0.02-0.02 73.7-73.7s0.02 0 0.02-0.02l73.72-73.72 36.86-36.86 35.12-35.12 32.76 32.76a9.96 9.96 0 0 0 7.08 2.92c2.56 0 5.12-0.96 7.08-2.92l40.84-40.86c13-12.98 20.14-30.24 20.14-48.6 0-15-4.76-29.24-13.58-41.04l74.6-74.6c14.9-14.9 23.1-34.7 23.1-55.76zM485 541.42l-21.58-21.58a10.006 10.006 0 0 0-14.16 14.14l21.6 21.58-22.72 22.72-21.6-21.58a10.006 10.006 0 0 0-14.14 0 10.006 10.006 0 0 0 0 14.14l21.58 21.58-22.7 22.72-21.6-21.58a10.006 10.006 0 0 0-14.14 0 10.006 10.006 0 0 0 0 14.14l21.58 21.58-22.72 22.74-21.58-21.6a10.006 10.006 0 0 0-14.14 0 10.006 10.006 0 0 0 0 14.14l21.58 21.6-12.64 12.64s-0.02 0-0.02 0.02c-11.9 11.9-31.26 11.9-43.16 0-0.84-0.84-1.8-1.46-2.82-1.94-2.52-1.2-5.44-1.32-8.02-0.26-1.2 0.48-2.34 1.22-3.3 2.2l-36.6 36.58-29.32-29.32 36.58-36.6a10.006 10.006 0 0 0 0-14.14c-11.9-11.9-11.9-31.26 0-43.18l120.88-120.88c33 18.6 71.84 29.98 115.6 33.84 7.38 0.66 14.94 1.08 22.58 1.28l-35.02 35.02z m184.3-184.32l-21.58-21.58a10.006 10.006 0 0 0-14.14 0 10.006 10.006 0 0 0 0 14.14l21.58 21.58-22.72 22.72-21.58-21.58c-3.9-3.9-10.24-3.9-14.14 0s-3.9 10.24 0 14.14l21.58 21.6-22.72 22.72-21.58-21.6a10.006 10.006 0 0 0-14.14 0 10.006 10.006 0 0 0 0 14.14l21.58 21.6-22.72 22.72-21.58-21.6a10.006 10.006 0 0 0-14.14 14.16l21.58 21.58-4.6 4.6c-13.9 0.32-27.6-0.08-40.78-1.24-38.72-3.42-73.16-13.06-102.6-28.66l214.12-214.12 86.64 86.64-28.06 28.04z m115.82-119.22a10.006 10.006 0 0 0 0 14.14c9.22 9.22 14.28 21.46 14.28 34.48s-5.06 25.26-14.28 34.46l-33.78 33.78-31.06-31.06c-0.3-0.28-0.62-0.52-0.94-0.76-0.26-0.32-0.48-0.64-0.76-0.94L617.8 221.2c-0.3-0.3-0.64-0.54-0.96-0.78-0.24-0.32-0.46-0.64-0.76-0.92l-31.06-31.06 33.8-33.8c9.2-9.2 21.44-14.28 34.46-14.28s25.26 5.08 34.46 14.28a9.98 9.98 0 0 0 7.08 2.94c2.56 0 5.12-0.98 7.06-2.94l81.18-81.16c11.1-11.12 25.88-17.24 41.62-17.24 15.72 0 30.5 6.12 41.6 17.24 11.12 11.12 17.24 25.9 17.24 41.62s-6.12 30.5-17.24 41.62l-81.16 81.16z" fill="#23130D" p-id="5807"></path><path d="M785.12 237.88a10.006 10.006 0 0 0 0 14.14c9.22 9.22 14.28 21.46 14.28 34.48s-5.06 25.26-14.28 34.46l-33.78 33.78-31.06-31.06c-0.3-0.28-0.62-0.52-0.94-0.76-0.26-0.32-0.48-0.64-0.76-0.94L617.8 221.2c-0.3-0.3-0.64-0.54-0.96-0.78-0.24-0.32-0.46-0.64-0.76-0.92l-31.06-31.06 33.8-33.8c9.2-9.2 21.44-14.28 34.46-14.28s25.26 5.08 34.46 14.28a9.98 9.98 0 0 0 7.08 2.94c2.56 0 5.12-0.98 7.06-2.94l81.18-81.16c11.1-11.12 25.88-17.24 41.62-17.24 15.72 0 30.5 6.12 41.6 17.24 11.12 11.12 17.24 25.9 17.24 41.62s-6.12 30.5-17.24 41.62l-81.16 81.16z" fill="#F9C139" p-id="5808"></path><path d="M616.08 219.5l1.56 1.56c-0.26-0.24-0.54-0.44-0.8-0.64-0.24-0.32-0.46-0.64-0.76-0.92zM718.58 321.98l1.7 1.7c-0.3-0.28-0.62-0.52-0.94-0.76-0.26-0.32-0.48-0.64-0.76-0.94z" fill="#FFFFFF" p-id="5809"></path><path d="M876.72 87.56c-8.38-4.46-17.78-6.82-27.54-6.82-15.74 0-30.52 6.12-41.62 17.24l-81.18 81.16a9.9 9.9 0 0 1-7.06 2.94 9.98 9.98 0 0 1-7.08-2.94c-9.2-9.2-21.44-14.28-34.46-14.28s-25.26 5.08-34.46 14.28l-33.8 33.8-24.5-24.5 33.8-33.8c9.2-9.2 21.44-14.28 34.46-14.28s25.26 5.08 34.46 14.28a9.98 9.98 0 0 0 7.08 2.94c2.56 0 5.12-0.98 7.06-2.94l81.18-81.16c11.1-11.12 25.88-17.24 41.62-17.24 15.72 0 30.5 6.12 41.6 17.24 4.22 4.22 7.72 8.96 10.44 14.08z" fill="#FFFFFF" opacity=".4" p-id="5810"></path><path d="M640.58 244l1.72 1.7c-0.3-0.3-0.64-0.54-0.96-0.78-0.24-0.32-0.46-0.64-0.76-0.92zM743.08 346.48l1.7 1.7c-0.3-0.28-0.62-0.52-0.94-0.76-0.26-0.32-0.48-0.64-0.76-0.94z" fill="#FFFFFF" p-id="5811"></path><path d="M785.018 237.778a10.006 10.006 0 0 0 0 14.14c9.22 9.22 14.28 21.46 14.28 34.48s-5.06 25.26-14.28 34.46l-33.78 33.78-24.5-24.5 33.78-33.78c9.22-9.2 14.28-21.44 14.28-34.46s-5.06-25.26-14.28-34.48a10.006 10.006 0 0 1 0-14.14l81.16-81.16c11.12-11.12 17.24-25.9 17.24-41.62 0-9.76-2.36-19.16-6.8-27.54 5.12 2.72 9.86 6.2 14.06 10.42 11.12 11.12 17.24 25.9 17.24 41.62s-6.12 30.5-17.24 41.62l-81.16 81.16z" fill="#23130D" opacity=".2" p-id="5812"></path><path d="M633.58 335.52a10.002 10.002 0 0 0-1.68 11.9c0.44 0.82 1 1.56 1.68 2.24l21.58 21.58-22.72 22.72-21.58-21.58a9.52 9.52 0 0 0-2.24-1.68c-3.8-2.1-8.68-1.54-11.9 1.68a10.002 10.002 0 0 0 0 14.14l21.58 21.6-22.72 22.72-21.58-21.6a10.002 10.002 0 0 0-14.14 0 10.006 10.006 0 0 0-1.68 11.9c0.44 0.82 1 1.56 1.68 2.24l21.58 21.6-22.72 22.72-21.58-21.6a9.52 9.52 0 0 0-2.24-1.68 10.002 10.002 0 0 0-11.9 15.84l21.58 21.58-4.6 4.6c-13.9 0.32-27.6-0.08-40.78-1.24-1.54-0.14-3.08-0.28-4.6-0.46-36.86-3.74-69.74-13.22-98-28.2l214.12-214.12 86.64 86.64-28.06 28.04-21.58-21.58a10.002 10.002 0 0 0-14.14 0z" fill="#E1E1E5" p-id="5813"></path><path d="M449.26 519.84a10.002 10.002 0 0 0-1.68 11.9c0.44 0.82 1 1.56 1.68 2.24l21.6 21.58-22.72 22.72-21.6-21.58a9.52 9.52 0 0 0-2.24-1.68 10.002 10.002 0 0 0-11.9 1.68 9.968 9.968 0 0 0-1.66 11.9c0.42 0.8 0.98 1.56 1.66 2.24l21.58 21.58-22.7 22.72-21.6-21.58c-0.68-0.68-1.44-1.24-2.24-1.66a9.968 9.968 0 0 0-11.9 1.66 10.002 10.002 0 0 0-1.68 11.9c0.44 0.82 1 1.56 1.68 2.24l21.58 21.58-22.72 22.74-21.58-21.6a9.52 9.52 0 0 0-2.24-1.68 10.002 10.002 0 0 0-11.9 1.68 9.972 9.972 0 0 0-1.66 11.9c0.42 0.8 0.98 1.56 1.66 2.24l21.58 21.6-12.64 12.64s-0.02 0-0.02 0.02c-11.9 11.9-31.26 11.9-43.16 0-0.84-0.84-1.8-1.46-2.82-1.94-2.52-1.2-5.44-1.32-8.02-0.26-1.2 0.48-2.34 1.22-3.3 2.2l-36.6 36.58-27.4-27.4-1.92-1.92 36.58-36.6a10.006 10.006 0 0 0 0-14.14c-11.9-11.9-11.9-31.26 0-43.18l120.88-120.88c27.68 15.6 59.46 26.12 94.82 31.38 6.78 1.02 13.72 1.84 20.78 2.46 7.38 0.66 14.94 1.08 22.58 1.28l-35.02 35.02-21.58-21.58c-0.68-0.68-1.44-1.24-2.24-1.68a9.978 9.978 0 0 0-11.92 1.68z" fill="#3594BF" p-id="5814"></path><path d="M272.54 821.54c-11.68-10.52-48.62-46.74-48.62-83.88 0-5.52-4.48-10-10-10s-10 4.48-10 10c0 37.14-36.94 73.36-48.62 83.88-1.64 1.32-3.28 2.74-4.88 4.22-19.04 17.64-29.94 42.62-29.94 68.56 0 51.52 41.92 93.44 93.44 93.44 51.52 0 93.44-41.92 93.44-93.44 0-28.42-12.68-54.94-34.82-72.78z m-58.62 146.22c-40.5 0-73.44-32.96-73.44-73.44 0-20.38 8.58-40.02 23.52-53.88 1.32-1.22 2.68-2.4 4.02-3.46a4 4 0 0 0 0.44-0.38c11.32-10.14 32.8-31.64 45.46-58.28 12.64 26.64 34.14 48.14 45.46 58.28l0.42 0.36c17.52 14.04 27.56 34.94 27.56 57.36 0 40.48-32.94 73.44-73.44 73.44z" fill="#23130D" p-id="5815"></path><path d="M287.36 894.32c0 40.48-32.94 73.44-73.44 73.44s-73.44-32.96-73.44-73.44c0-20.38 8.58-40.02 23.52-53.88 1.32-1.22 2.68-2.4 4.02-3.46a4 4 0 0 0 0.44-0.38c11.32-10.14 32.8-31.64 45.46-58.28 12.64 26.64 34.14 48.14 45.46 58.28l0.42 0.36c17.52 14.04 27.56 34.94 27.56 57.36z" fill="#3594BF" p-id="5816"></path><path d="M287.36 894.32c0 40.48-32.94 73.44-73.44 73.44-6.92 0-13.64-0.96-20-2.78 30.82-8.72 53.44-37.1 53.44-70.66 0-22.42-10.04-43.32-27.56-57.36l-0.42-0.36c-6.4-5.72-16.02-15.06-25.46-26.92 7.3-9.14 14.5-19.76 20-31.36 12.64 26.64 34.14 48.14 45.46 58.28l0.42 0.36c17.52 14.04 27.56 34.94 27.56 57.36zM338.68 644.56l21.58 21.6-12.64 12.64s-0.02 0-0.02 0.02c-11.9 11.9-31.26 11.9-43.16 0-0.84-0.84-1.8-1.46-2.82-1.94-2.52-1.2-5.44-1.32-8.02-0.26-1.2 0.48-2.34 1.22-3.3 2.2l-36.6 36.58-27.4-27.4c56.64-1.22 100.7-35.66 100.7-35.66l10.02-10.02c0.42 0.8 0.98 1.56 1.66 2.24zM375.54 607.7l21.58 21.58-22.72 22.74-21.58-21.6a9.52 9.52 0 0 0-2.24-1.68l23.28-23.28c0.44 0.82 1 1.56 1.68 2.24zM412.4 570.84l21.58 21.58-22.7 22.72-21.6-21.58c-0.68-0.68-1.44-1.24-2.24-1.66l23.3-23.3c0.42 0.8 0.98 1.56 1.66 2.24zM449.26 533.98l21.6 21.58-22.72 22.72-21.6-21.58a9.52 9.52 0 0 0-2.24-1.68l23.28-23.28c0.44 0.82 1 1.56 1.68 2.24zM497.44 505.12c7.38 0.66 14.94 1.08 22.58 1.28l-35.02 35.02-21.58-21.58c-0.68-0.68-1.44-1.24-2.24-1.68l15.48-15.5c6.78 1.02 13.72 1.84 20.78 2.46zM523 460.26l21.58 21.58-4.6 4.6c-13.9 0.32-27.6-0.08-40.78-1.24-1.54-0.14-3.08-0.28-4.6-0.46l26.72-26.72c0.44 0.8 1 1.56 1.68 2.24zM559.86 423.38l21.58 21.6-22.72 22.72-21.58-21.6a9.52 9.52 0 0 0-2.24-1.68l23.28-23.28c0.44 0.82 1 1.56 1.68 2.24zM596.72 386.52l21.58 21.6-22.72 22.72-21.58-21.6c-0.68-0.68-1.44-1.24-2.24-1.68l23.28-23.28c0.44 0.8 1 1.56 1.68 2.24zM633.58 349.66l21.58 21.58-22.72 22.72-21.58-21.58a9.52 9.52 0 0 0-2.24-1.68l23.28-23.28c0.44 0.82 1 1.56 1.68 2.24zM697.36 329.06l-28.06 28.04-21.58-21.58c-0.68-0.68-1.44-1.24-2.24-1.68l28.34-28.32 23.54 23.54z" fill="#23130D" opacity=".2" p-id="5817"></path></svg>