<?xml version="1.0" standalone="no"?><!DOCTYPE svg PUBLIC "-//W3C//DTD SVG 1.1//EN" "http://www.w3.org/Graphics/SVG/1.1/DTD/svg11.dtd"><svg t="1729221012660" class="icon" viewBox="0 0 1024 1024" version="1.1" xmlns="http://www.w3.org/2000/svg" p-id="19645" xmlns:xlink="http://www.w3.org/1999/xlink" width="200" height="200"><path d="M936.682667 436.074667A159.445333 159.445333 0 0 1 1024 461.973333l-25.386667 55.381334c-11.242667-8-21.589333-13.802667-30.997333-17.450667a77.312 77.312 0 0 0-28.074667-5.504c-7.808 0-14.250667 1.813333-19.456 5.354667-5.098667 3.605333-7.637333 8-7.637333 13.205333 0 7.466667 8.448 14.485333 25.386667 20.992 7.445333 2.730667 13.333333 5.12 17.6 7.082667 23.573333 10.24 40.106667 20.842667 49.514666 31.850666 9.386667 10.986667 14.144 24.682667 14.144 41.130667 0 25.877333-9.984 46.677333-30.037333 62.378667-20.053333 15.68-46.677333 23.530667-80 23.530666a193.813333 193.813333 0 0 1-54.037333-7.445333 195.562667 195.562667 0 0 1-49.92-22.592l29.013333-59.093333c16.597333 10.261333 30.506667 17.493333 41.749333 21.76 11.242667 4.266667 21.845333 6.336 31.744 6.336 8.64 0 15.530667-1.898667 20.736-5.738667 5.184-3.84 7.786667-8.746667 7.786667-14.741333 0-9.301333-11.946667-18.794667-35.882667-28.544l-16.597333-6.826667c-18.986667-8.533333-32.533333-17.664-40.469333-27.605333-7.957333-9.941333-11.946667-22.293333-11.946667-37.077334 0-23.594667 9.834667-43.2 29.525333-58.837333 19.690667-15.637333 44.992-23.445333 75.946667-23.445333z m-638.208-102.954667l70.997333 334.229333 96.426667-105.813333-71.509334-117.653333h93.461334l20.992 40.021333c2.112 3.904 4.053333 8.064 5.866666 12.458667 1.792 4.394667 3.498667 9.28 5.12 14.634666 2.474667-4.906667 5.162667-9.685333 8.064-14.4 2.901333-4.693333 6.101333-9.28 9.493334-13.653333l29.546666-39.018667h98.858667l-97.365333 118.613334 71.530666 127.893333H542.293333l-22.954666-45.376a244.266667 244.266667 0 0 1-7.082667-14.912 91.114667 91.114667 0 0 1-4.394667-12.693333c-3.264 6.357333-6.250667 11.733333-9.066666 16.256-2.773333 4.48-5.589333 8.533333-8.490667 12.245333l-33.92 44.437333h-178.901333l-14.378667-67.392H138.154667l-34.197334 67.392H0l178.88-357.269333h119.594667z m493.653333 110.762667l-39.04 246.506666h-87.338667l38.784-246.506666h87.616z m-564.16-24.405334c-3.456 9.749333-6.549333 18.346667-9.450667 25.749334-2.858667 7.402667-5.12 12.885333-6.698666 16.490666l-37.845334 81.770667h75.434667l-16.341333-83.477333a333.482667 333.482667 0 0 1-3.648-22.229334 177.92 177.92 0 0 1-1.450667-18.304z m529.536-95.402666c13.546667 0 24.746667 4.394667 33.706667 13.184 8.917333 8.810667 13.44 19.84 13.44 33.194666 0 13.205333-4.565333 24.341333-13.653334 33.429334-9.109333 9.109333-20.288 13.653333-33.493333 13.653333a44.373333 44.373333 0 0 1-32.853333-13.802667 45.866667 45.866667 0 0 1-13.482667-33.28c0-12.693333 4.544-23.594667 13.546667-32.682666a44.352 44.352 0 0 1 32.789333-13.696z" fill="#172634" p-id="19646"></path></svg>