<?xml version="1.0" standalone="no"?><!DOCTYPE svg PUBLIC "-//W3C//DTD SVG 1.1//EN" "http://www.w3.org/Graphics/SVG/1.1/DTD/svg11.dtd"><svg t="1729220826947" class="icon" viewBox="0 0 1024 1024" version="1.1" xmlns="http://www.w3.org/2000/svg" p-id="11634" xmlns:xlink="http://www.w3.org/1999/xlink" width="200" height="200"><path d="M7.13007408 822.68918518h1009.73985184v194.18074074H7.13007408z" fill="#FFFF00" p-id="11635"></path><path d="M485.96423111 236.59747555l154.4704 154.4704q51.49013333 51.49013333 0 102.98026667L485.96423111 648.51626667q-51.48899555 51.49013333-102.98026666 0L228.51584 494.04700445q-51.49013333-51.48899555 0-102.98026667l154.4704-154.46926223q51.49013333-51.49013333 102.98026667 0z" fill="#FFFFFF" p-id="11636"></path><path d="M373.85982103 163.7950957l-96.11946666-96.08063052 54.91431348-54.95314963 143.5772397 143.53840356a89.60713008 89.60713008 0 0 1 8.00024653 6.99050667l219.69609007 219.69609007a77.6722963 77.6722963 0 0 1 0 109.82862697L484.23215408 712.51103289a77.6722963 77.6722963 0 0 1-109.86746311 0L154.70743703 492.81494282a77.6722963 77.6722963 0 0 1 0-109.82862697l219.152384-219.19122015z m206.49179972 205.44322371l-0.54370608 0.50486992-150.994944-150.994944L216.26273185 431.259648h426.11021748l-62.02132858-62.02132859zM803.27111111 745.01688889a97.09037037 97.09037037 0 0 1-97.09037036-97.09037037c0-53.59388445 82.13845333-151.30563318 97.09037036-151.30563319 14.95191703 0 97.09037037 97.67291259 97.09037037 151.30563319a97.09037037 97.09037037 0 0 1-97.09037037 97.09037037z" fill="#8C8C00" p-id="11637"></path></svg>